<svg height="512pt" viewBox="0 -10 512 511" width="512pt" xmlns="http://www.w3.org/2000/svg"><path d="M103.012 221.105c0-10.59-8.617-19.207-19.207-19.207H57.207c-10.59 0-19.207 8.618-19.207 19.207v26.598c0 10.594 8.617 19.207 19.207 19.207h26.598c10.59 0 19.207-8.613 19.207-19.207zm-15 26.598a4.211 4.211 0 01-4.207 4.207H57.207A4.211 4.211 0 0153 247.703v-26.598a4.211 4.211 0 014.207-4.207h26.598a4.211 4.211 0 014.207 4.207zm107.746-26.598c0-10.59-8.617-19.207-19.207-19.207h-26.598c-10.59 0-19.207 8.618-19.207 19.207v26.598c0 10.594 8.617 19.207 19.207 19.207h26.598c10.59 0 19.207-8.613 19.207-19.207zm-15 26.598a4.211 4.211 0 01-4.207 4.207h-26.598a4.211 4.211 0 01-4.207-4.207v-26.598a4.211 4.211 0 014.207-4.207h26.598a4.211 4.211 0 014.207 4.207zm88.542-45.805h-26.6c-10.59 0-19.204 8.618-19.204 19.207v26.598c0 10.594 8.613 19.207 19.203 19.207h26.602c10.59 0 19.207-8.613 19.207-19.207v-26.598c0-10.59-8.617-19.207-19.207-19.207zm4.208 45.805c0 2.32-1.89 4.207-4.207 4.207h-26.602a4.21 4.21 0 01-4.203-4.207v-26.598a4.21 4.21 0 014.203-4.207h26.602a4.214 4.214 0 014.207 4.207zm61.942 19.207h26.597c10.59 0 19.207-8.613 19.207-19.207v-26.598c0-10.59-8.617-19.207-19.207-19.207h-26.598c-10.59 0-19.207 8.618-19.207 19.207v26.598c0 10.594 8.617 19.207 19.207 19.207zm-4.208-45.805a4.211 4.211 0 014.207-4.207h26.598a4.211 4.211 0 014.207 4.207v26.598a4.211 4.211 0 01-4.207 4.207h-26.598a4.211 4.211 0 01-4.207-4.207zm96.953 45.805h26.598c10.59 0 19.207-8.613 19.207-19.207v-26.598c0-10.59-8.617-19.207-19.207-19.207h-26.598c-10.59 0-19.207 8.618-19.207 19.207v26.598c0 10.594 8.617 19.207 19.207 19.207zm-4.207-45.805a4.211 4.211 0 014.207-4.207h26.598a4.211 4.211 0 014.207 4.207v26.598a4.211 4.211 0 01-4.207 4.207h-26.598a4.211 4.211 0 01-4.207-4.207zm-320.976 85.497c0-10.59-8.617-19.207-19.207-19.207H57.207c-10.59 0-19.207 8.617-19.207 19.207v26.597c0 10.59 8.617 19.207 19.207 19.207h26.598c10.59 0 19.207-8.617 19.207-19.207zm-15 26.597a4.211 4.211 0 01-4.207 4.207H57.207A4.211 4.211 0 0153 333.2v-26.597a4.211 4.211 0 014.207-4.207h26.598a4.211 4.211 0 014.207 4.207zm107.746-26.597c0-10.59-8.617-19.207-19.207-19.207h-26.598c-10.59 0-19.207 8.617-19.207 19.207v26.597c0 10.59 8.617 19.207 19.207 19.207h26.598c10.59 0 19.207-8.617 19.207-19.207zm-15 26.597a4.211 4.211 0 01-4.207 4.207h-26.598a4.211 4.211 0 01-4.207-4.207v-26.597a4.211 4.211 0 014.207-4.207h26.598a4.211 4.211 0 014.207 4.207zm88.542-45.804h-26.6c-10.59 0-19.204 8.617-19.204 19.207v26.597c0 10.59 8.613 19.207 19.203 19.207h26.602c10.59 0 19.207-8.617 19.207-19.207v-26.597c0-10.59-8.617-19.207-19.207-19.207zm4.208 45.804c0 2.32-1.89 4.207-4.207 4.207h-26.602a4.21 4.21 0 01-4.203-4.207v-26.597a4.21 4.21 0 014.203-4.207h26.602a4.214 4.214 0 014.207 4.207zm42.734.001c0 10.59 8.617 19.206 19.207 19.206h26.598c10.59 0 19.207-8.617 19.207-19.207v-26.597c0-10.59-8.617-19.207-19.207-19.207h-26.598c-10.59 0-19.207 8.617-19.207 19.207zm15-26.598a4.211 4.211 0 014.207-4.207h26.598a4.211 4.211 0 014.207 4.207v26.597a4.211 4.211 0 01-4.207 4.207h-26.598a4.211 4.211 0 01-4.207-4.207zm77.746 26.598c0 10.59 8.617 19.206 19.207 19.206h26.598c10.59 0 19.207-8.617 19.207-19.207v-26.597c0-10.59-8.617-19.207-19.207-19.207h-26.598c-10.59 0-19.207 8.617-19.207 19.207zm15-26.598a4.211 4.211 0 014.207-4.207h26.598a4.211 4.211 0 014.207 4.207v26.597a4.211 4.211 0 01-4.207 4.207h-26.598a4.211 4.211 0 01-4.207-4.207zM83.805 372.89H57.207c-10.59 0-19.207 8.614-19.207 19.204v26.601c0 10.59 8.617 19.203 19.207 19.203h26.598c10.59 0 19.207-8.613 19.207-19.203v-26.601c0-10.59-8.617-19.203-19.207-19.203zm4.207 45.805a4.21 4.21 0 01-4.207 4.203H57.207A4.21 4.21 0 0153 418.695v-26.601a4.21 4.21 0 014.207-4.203h26.598a4.21 4.21 0 014.207 4.203zm88.538-45.805h-26.597c-10.59 0-19.207 8.614-19.207 19.204v26.601c0 10.59 8.617 19.203 19.207 19.203h26.598c10.59 0 19.207-8.613 19.207-19.203v-26.601c0-10.59-8.613-19.203-19.207-19.203zm4.208 45.805a4.21 4.21 0 01-4.207 4.203h-26.598a4.21 4.21 0 01-4.207-4.203v-26.601a4.21 4.21 0 014.207-4.203h26.598a4.21 4.21 0 014.207 4.203zM269.3 372.89h-26.6c-10.59 0-19.204 8.614-19.204 19.204v26.601c0 10.59 8.613 19.203 19.203 19.203h26.602c10.59 0 19.207-8.613 19.207-19.203v-26.601c0-10.59-8.617-19.203-19.207-19.203zm4.208 45.805a4.213 4.213 0 01-4.207 4.203h-26.602a4.21 4.21 0 01-4.203-4.203v-26.601a4.21 4.21 0 014.203-4.203h26.602a4.213 4.213 0 014.207 4.203zm42.734 0c0 10.59 8.617 19.203 19.207 19.203h26.598c10.59 0 19.207-8.613 19.207-19.203v-26.601c0-10.59-8.617-19.203-19.207-19.203h-26.598c-10.59 0-19.207 8.613-19.207 19.203zm15-26.601a4.21 4.21 0 014.207-4.203h26.598a4.21 4.21 0 014.207 4.203v26.601a4.21 4.21 0 01-4.207 4.203h-26.598a4.21 4.21 0 01-4.207-4.203zm77.746 26.601c0 10.59 8.617 19.203 19.207 19.203h26.598c10.59 0 19.207-8.613 19.207-19.203v-26.601c0-10.59-8.617-19.203-19.207-19.203h-26.598c-10.59 0-19.207 8.613-19.207 19.203zm15-26.601a4.21 4.21 0 014.207-4.203h26.598a4.21 4.21 0 014.207 4.203v26.601a4.21 4.21 0 01-4.207 4.203h-26.598a4.21 4.21 0 01-4.207-4.203zm0 0"/><path d="M480.3 41.469h-48.808V27.875C431.492 12.781 419.211.5 404.117.5h-11.25c-15.094 0-27.375 12.281-27.375 27.375v13.594H289V27.875C289 12.781 276.719.5 261.625.5h-11.25C235.281.5 223 12.781 223 27.875v13.594h-17.168a7.5 7.5 0 100 15H223v13.597c0 15.094 12.281 27.375 27.375 27.375h11.25c15.094 0 27.375-12.28 27.375-27.375V56.47h76.492v13.597c0 15.094 12.281 27.375 27.375 27.375h11.25c15.094 0 27.375-12.28 27.375-27.375V56.47h48.809c9.207 0 16.699 7.492 16.699 16.699v48.082c0 16.5-13.422 29.922-29.922 29.922H44.922C28.422 151.172 15 137.75 15 121.25V73.172c0-9.211 7.492-16.703 16.7-16.703h48.808v13.597c0 15.094 12.281 27.375 27.375 27.375h11.25c15.094 0 27.375-12.28 27.375-27.375V56.47h24.328a7.5 7.5 0 100-15h-24.328V27.875C146.508 12.781 134.227.5 119.133.5h-11.25C92.789.5 80.508 12.781 80.508 27.875v13.594H31.699C14.22 41.469 0 55.69 0 73.172v387.43C0 478.078 14.219 492.3 31.7 492.3h242.632a7.5 7.5 0 007.5-7.5c0-4.145-3.355-7.5-7.5-7.5H31.699C22.492 477.3 15 469.809 15 460.6V154.72c7.95 7.117 18.437 11.453 29.922 11.453h422.156c11.484 0 21.973-4.336 29.922-11.453v305.883c0 9.207-7.492 16.699-16.7 16.699H309.333a7.5 7.5 0 100 15h170.969c17.48 0 31.699-14.223 31.699-31.7V73.172c0-17.48-14.223-31.702-31.7-31.702zM274 70.066c0 6.82-5.555 12.375-12.375 12.375h-11.25c-6.824 0-12.375-5.554-12.375-12.375V27.875c0-6.824 5.55-12.375 12.375-12.375h11.25c6.82 0 12.375 5.55 12.375 12.375zm142.492 0c0 6.82-5.55 12.375-12.375 12.375h-11.25c-6.82 0-12.375-5.554-12.375-12.375V27.875c0-6.824 5.555-12.375 12.375-12.375h11.25c6.824 0 12.375 5.55 12.375 12.375zM95.508 27.875c0-6.824 5.55-12.375 12.375-12.375h11.25c6.82 0 12.375 5.55 12.375 12.375v42.191c0 6.82-5.551 12.375-12.375 12.375h-11.25c-6.824 0-12.375-5.554-12.375-12.375zm0 0"/></svg>