<svg height="512pt" viewBox="0 0 512 512" width="512pt" xmlns="http://www.w3.org/2000/svg"><path d="M504.5 362a7.5 7.5 0 007.5-7.5V7.5a7.5 7.5 0 00-7.5-7.5H7.5C3.36 0 0 3.36 0 7.5v347c0 4.14 3.36 7.5 7.5 7.5H211v15H7.5c-4.14 0-7.5 3.36-7.5 7.5s3.36 7.5 7.5 7.5H211v112.5c0 4.14 3.36 7.5 7.5 7.5h75a7.5 7.5 0 007.5-7.5V392h203.5a7.5 7.5 0 100-15H301v-15zM15 15h482v332H15zm271 482h-60V392h60zm0-120h-60v-15h60zm0 0"/><path d="M482 324.5v-287a7.5 7.5 0 00-7.5-7.5h-437c-4.14 0-7.5 3.36-7.5 7.5v287c0 4.14 3.36 7.5 7.5 7.5h437a7.5 7.5 0 007.5-7.5zM45 317V120h22.5c4.14 0 7.5-3.36 7.5-7.5s-3.36-7.5-7.5-7.5H45V45h422v60H97.5c-4.14 0-7.5 3.36-7.5 7.5s3.36 7.5 7.5 7.5H467v197zm0 0"/></svg>