<svg height="512pt" viewBox="-65 0 512 512" width="512pt" xmlns="http://www.w3.org/2000/svg"><path d="M366.305 50.273H248.48C244.742 21.668 220.504 0 191.043 0s-53.7 21.668-57.438 50.273H15.781C7.078 50.273 0 57.352 0 66.055v430.164C0 504.922 7.078 512 15.781 512h350.524c8.699 0 15.78-7.078 15.78-15.781V66.055c0-8.703-7.077-15.782-15.78-15.782zm.75 445.946a.754.754 0 01-.75.754H15.78a.754.754 0 01-.75-.754V66.055a.75.75 0 01.75-.75h75.903v13.894H51.746c-7.812 0-14.168 6.356-14.168 14.168v245.106a7.516 7.516 0 0015.031 0V94.227h39.078v20.214c0 8.563 6.965 15.528 15.528 15.528h34.277a7.514 7.514 0 100-15.028h-34.277a.504.504 0 01-.5-.503V65.305h33.894a7.517 7.517 0 007.516-7.383l.02-.758v-.262l-.004-.136c.007-.125.015-.254.02-.38.831-23.19 19.667-41.359 42.882-41.359 23.215 0 42.05 18.168 42.883 41.36.004.125.012.25.02.379l-.005.136v.262l.02.758a7.52 7.52 0 007.516 7.383h33.894v49.136c0 .274-.226.5-.5.5h-97.855a7.516 7.516 0 000 15.031h97.855c8.563 0 15.527-6.968 15.527-15.53V94.226h39.079v320.03H52.609v-40.73a7.516 7.516 0 00-15.031 0v41.586c0 7.817 6.356 14.172 14.168 14.172H330.34c7.812 0 14.168-6.355 14.168-14.172V93.367c0-7.812-6.356-14.168-14.168-14.168h-39.938V65.305h75.903a.75.75 0 01.75.75zm0 0"/><path d="M264.023 171.559h35.579a7.515 7.515 0 007.511-7.516 7.513 7.513 0 00-7.511-7.516h-35.579a7.516 7.516 0 000 15.032zm-102.323 0h67.132a7.516 7.516 0 000-15.031h-67.133a7.513 7.513 0 00-7.512 7.515 7.515 7.515 0 007.512 7.516zm80.628 29.711h57.274a7.512 7.512 0 007.511-7.512 7.513 7.513 0 00-7.511-7.516h-57.274a7.516 7.516 0 00-7.516 7.516 7.515 7.515 0 007.516 7.512zm-80.628 0h45.84a7.514 7.514 0 100-15.027H161.7a7.513 7.513 0 00-7.512 7.515 7.512 7.512 0 007.511 7.512zm-59.016 5.343c15.28 0 27.714-12.433 27.714-27.715s-12.433-27.71-27.714-27.71-27.711 12.43-27.711 27.71c0 15.286 12.43 27.715 27.71 27.715zm0-40.398c6.996 0 12.683 5.691 12.683 12.683 0 6.997-5.687 12.684-12.683 12.684-6.993 0-12.684-5.687-12.684-12.684 0-6.992 5.691-12.683 12.684-12.683zm196.918 80.199h-35.579a7.516 7.516 0 000 15.031h35.579a7.515 7.515 0 007.511-7.515 7.513 7.513 0 00-7.511-7.516zM161.7 261.441h67.132a7.515 7.515 0 007.516-7.511 7.516 7.516 0 00-7.516-7.516h-67.133a7.513 7.513 0 00-7.512 7.516 7.512 7.512 0 007.512 7.511zm137.902 14.688h-57.274a7.516 7.516 0 00-7.516 7.516 7.513 7.513 0 007.516 7.511h57.274a7.512 7.512 0 007.511-7.511 7.513 7.513 0 00-7.511-7.516zM161.7 291.156h45.84a7.514 7.514 0 100-15.027H161.7a7.512 7.512 0 00-7.512 7.512 7.513 7.513 0 007.511 7.515zm-59.016 5.344c15.28 0 27.714-12.434 27.714-27.715s-12.433-27.715-27.714-27.715-27.711 12.434-27.711 27.715 12.43 27.715 27.71 27.715zm0-40.398c6.996 0 12.683 5.691 12.683 12.683 0 6.996-5.687 12.684-12.683 12.684-6.993 0-12.684-5.688-12.684-12.684 0-6.992 5.691-12.683 12.684-12.683zM299.602 336.3h-35.579a7.516 7.516 0 00-7.515 7.516 7.515 7.515 0 007.515 7.512h35.579a7.512 7.512 0 007.511-7.512 7.513 7.513 0 00-7.511-7.515zM161.7 351.328h67.132a7.515 7.515 0 007.516-7.512 7.516 7.516 0 00-7.516-7.515h-67.133a7.513 7.513 0 00-7.512 7.515 7.512 7.512 0 007.512 7.512zm137.902 14.688h-57.274a7.514 7.514 0 100 15.027h57.274a7.513 7.513 0 007.511-7.516 7.512 7.512 0 00-7.511-7.511zM161.7 381.043h45.84a7.516 7.516 0 000-15.031H161.7a7.515 7.515 0 00-7.512 7.515 7.513 7.513 0 007.511 7.516zm-59.016 5.344c15.28 0 27.714-12.434 27.714-27.715s-12.433-27.715-27.714-27.715-27.711 12.434-27.711 27.715 12.43 27.715 27.71 27.715zm0-40.399c6.996 0 12.683 5.692 12.683 12.684s-5.687 12.683-12.683 12.683c-6.993 0-12.684-5.69-12.684-12.683s5.691-12.684 12.684-12.684zm0 0"/></svg>