<svg height="512pt" viewBox="-68 0 512 512" width="512pt" xmlns="http://www.w3.org/2000/svg"><path d="M375 37.5C375 16.82 358.18 0 337.5 0h-300C16.82 0 0 16.82 0 37.5v96c0 8.27 6.73 15 15 15h92.5c4.14 0 7.5-3.36 7.5-7.5s-3.36-7.5-7.5-7.5H15v-96C15 25.094 25.094 15 37.5 15h300c12.406 0 22.5 10.094 22.5 22.5v96h-92.5a7.5 7.5 0 100 15H360v326c0 12.406-10.094 22.5-22.5 22.5h-300C25.094 497 15 486.906 15 474.5V170c0-4.14-3.36-7.5-7.5-7.5S0 165.86 0 170v304.5C0 495.18 16.82 512 37.5 512h300c20.68 0 37.5-16.82 37.5-37.5V148a7.484 7.484 0 00-2.781-5.828A14.93 14.93 0 00375 133.5zm0 0"/><path d="M53.5 222.875h22c12.406 0 22.5-10.094 22.5-22.5V181c0-12.406-10.094-22.5-22.5-22.5h-22C41.094 158.5 31 168.594 31 181v19.375c0 12.406 10.094 22.5 22.5 22.5zM46 181c0-4.137 3.363-7.5 7.5-7.5h22c4.137 0 7.5 3.363 7.5 7.5v19.375c0 4.137-3.363 7.5-7.5 7.5h-22a7.507 7.507 0 01-7.5-7.5zm67 19.375c0 12.406 10.094 22.5 22.5 22.5h22c12.406 0 22.5-10.094 22.5-22.5V181c0-12.406-10.094-22.5-22.5-22.5h-22c-12.406 0-22.5 10.094-22.5 22.5zM128 181c0-4.137 3.363-7.5 7.5-7.5h22c4.137 0 7.5 3.363 7.5 7.5v19.375c0 4.137-3.363 7.5-7.5 7.5h-22a7.507 7.507 0 01-7.5-7.5zm134 0c0-12.406-10.094-22.5-22.5-22.5h-22c-12.406 0-22.5 10.094-22.5 22.5v19.375c0 12.406 10.094 22.5 22.5 22.5h22c12.406 0 22.5-10.094 22.5-22.5zm-15 19.375c0 4.137-3.363 7.5-7.5 7.5h-22a7.507 7.507 0 01-7.5-7.5V181c0-4.137 3.363-7.5 7.5-7.5h22c4.137 0 7.5 3.363 7.5 7.5zM31 279.75c0 12.406 10.094 22.5 22.5 22.5h22c12.406 0 22.5-10.094 22.5-22.5v-19.375c0-12.406-10.094-22.5-22.5-22.5h-22c-12.406 0-22.5 10.094-22.5 22.5zm15-19.375c0-4.137 3.363-7.5 7.5-7.5h22c4.137 0 7.5 3.363 7.5 7.5v19.375c0 4.137-3.363 7.5-7.5 7.5h-22a7.507 7.507 0 01-7.5-7.5zm67 19.375c0 12.406 10.094 22.5 22.5 22.5h22c12.406 0 22.5-10.094 22.5-22.5v-19.375c0-12.406-10.094-22.5-22.5-22.5h-22c-12.406 0-22.5 10.094-22.5 22.5zm15-19.375c0-4.137 3.363-7.5 7.5-7.5h22c4.137 0 7.5 3.363 7.5 7.5v19.375c0 4.137-3.363 7.5-7.5 7.5h-22a7.507 7.507 0 01-7.5-7.5zm-97 98.75c0 12.406 10.094 22.5 22.5 22.5h22c12.406 0 22.5-10.094 22.5-22.5V339.75c0-12.406-10.094-22.5-22.5-22.5h-22c-12.406 0-22.5 10.094-22.5 22.5zm15-19.375c0-4.137 3.363-7.5 7.5-7.5h22c4.137 0 7.5 3.363 7.5 7.5v19.375c0 4.137-3.363 7.5-7.5 7.5h-22a7.507 7.507 0 01-7.5-7.5zm67 19.375c0 12.406 10.094 22.5 22.5 22.5h22c12.406 0 22.5-10.094 22.5-22.5V339.75c0-12.406-10.094-22.5-22.5-22.5h-22c-12.406 0-22.5 10.094-22.5 22.5zm15-19.375c0-4.137 3.363-7.5 7.5-7.5h22c4.137 0 7.5 3.363 7.5 7.5v19.375c0 4.137-3.363 7.5-7.5 7.5h-22a7.507 7.507 0 01-7.5-7.5zm-15 98.75c0 12.406 10.094 22.5 22.5 22.5h22c12.406 0 22.5-10.094 22.5-22.5v-19.375c0-12.406-10.094-22.5-22.5-22.5h-22c-12.406 0-22.5 10.094-22.5 22.5zm15-19.375c0-4.137 3.363-7.5 7.5-7.5h22c4.137 0 7.5 3.363 7.5 7.5V438.5c0 4.137-3.363 7.5-7.5 7.5h-22a7.507 7.507 0 01-7.5-7.5zm134-158.75c0-12.406-10.094-22.5-22.5-22.5h-22c-12.406 0-22.5 10.094-22.5 22.5v19.375c0 12.406 10.094 22.5 22.5 22.5h22c12.406 0 22.5-10.094 22.5-22.5zm-15 19.375c0 4.137-3.363 7.5-7.5 7.5h-22a7.507 7.507 0 01-7.5-7.5v-19.375c0-4.137 3.363-7.5 7.5-7.5h22c4.137 0 7.5 3.363 7.5 7.5zm15 60c0-12.406-10.094-22.5-22.5-22.5h-22c-12.406 0-22.5 10.094-22.5 22.5v19.375c0 12.406 10.094 22.5 22.5 22.5h22c12.406 0 22.5-10.094 22.5-22.5zm-15 19.375c0 4.137-3.363 7.5-7.5 7.5h-22a7.507 7.507 0 01-7.5-7.5V339.75c0-4.137 3.363-7.5 7.5-7.5h22c4.137 0 7.5 3.363 7.5 7.5zm52.5-136.25h22c12.406 0 22.5-10.094 22.5-22.5V181c0-12.406-10.094-22.5-22.5-22.5h-22c-12.406 0-22.5 10.094-22.5 22.5v19.375c0 12.406 10.094 22.5 22.5 22.5zM292 181c0-4.137 3.363-7.5 7.5-7.5h22c4.137 0 7.5 3.363 7.5 7.5v19.375c0 4.137-3.363 7.5-7.5 7.5h-22a7.507 7.507 0 01-7.5-7.5zm-15 98.75c0 12.406 10.094 22.5 22.5 22.5h22c12.406 0 22.5-10.094 22.5-22.5v-19.375c0-12.406-10.094-22.5-22.5-22.5h-22c-12.406 0-22.5 10.094-22.5 22.5zm15-19.375c0-4.137 3.363-7.5 7.5-7.5h22c4.137 0 7.5 3.363 7.5 7.5v19.375c0 4.137-3.363 7.5-7.5 7.5h-22a7.507 7.507 0 01-7.5-7.5zM277 438.5c0 12.406 10.094 22.5 22.5 22.5h22c12.406 0 22.5-10.094 22.5-22.5v-99.375c0-12.406-10.094-22.5-22.5-22.5h-22c-12.406 0-22.5 10.094-22.5 22.5zm15-99.375c0-4.137 3.363-7.5 7.5-7.5h22c4.137 0 7.5 3.363 7.5 7.5V438.5c0 4.137-3.363 7.5-7.5 7.5h-22a7.507 7.507 0 01-7.5-7.5zm-52.5 57.5h-22c-12.406 0-22.5 10.094-22.5 22.5V438.5c0 12.406 10.094 22.5 22.5 22.5h22c12.406 0 22.5-10.094 22.5-22.5v-19.375c0-12.406-10.094-22.5-22.5-22.5zM247 438.5c0 4.137-3.363 7.5-7.5 7.5h-22a7.507 7.507 0 01-7.5-7.5v-19.375c0-4.137 3.363-7.5 7.5-7.5h22c4.137 0 7.5 3.363 7.5 7.5zm-216 0c0 12.406 10.094 22.5 22.5 22.5h22c12.406 0 22.5-10.094 22.5-22.5v-19.375c0-12.406-10.094-22.5-22.5-22.5h-22c-12.406 0-22.5 10.094-22.5 22.5zm15-19.375c0-4.137 3.363-7.5 7.5-7.5h22c4.137 0 7.5 3.363 7.5 7.5V438.5c0 4.137-3.363 7.5-7.5 7.5h-22a7.507 7.507 0 01-7.5-7.5zM337.5 88.5V51.625c0-12.406-10.594-22.5-23-22.5h-254c-12.406 0-22.5 10.094-22.5 22.5V88.5c0 12.406 10.094 22.5 22.5 22.5h254c12.406 0 23-10.094 23-22.5zM53 88.5V51.625c0-4.137 3.363-7.5 7.5-7.5h254c4.137 0 7.5 3.363 7.5 7.5V88.5c0 4.137-3.363 7.5-7.5 7.5h-254a7.507 7.507 0 01-7.5-7.5zm0 0"/></svg>