<svg xmlns="http://www.w3.org/2000/svg" viewBox="0 0 512 512"><path d="M352 352a8 8 0 000 16c8.822 0 16 7.178 16 16a8 8 0 0016 0c0-17.645-14.355-32-32-32z"/><path d="M424 0H88C74.767 0 64 10.767 64 24v432c0 13.233 10.767 24 24 24h176.086c.105.78.313 1.551.651 2.283a8 8 0 005.839 4.517l20.76 3.755 18.333 19a8.001 8.001 0 0012.702-1.586L338.355 480h27.108l15.828 27.943a8.002 8.002 0 006.961 4.057 8 8 0 005.756-2.445l18.333-19 20.76-3.755a7.996 7.996 0 005.537-11.807C444.479 470.476 448 463.45 448 456V24c0-13.233-10.767-24-24-24zM80 456V24c0-4.411 3.589-8 8-8h336c4.411 0 8 3.589 8 8v432a7.962 7.962 0 01-1.574 4.719l-24.429-42.43C412.319 408.369 416 396.61 416 384c0-35.29-28.71-64-64-64s-64 28.71-64 64c0 12.602 3.676 24.355 9.991 34.271L271.422 464H88c-4.411 0-8-3.589-8-8zm272-24c-26.467 0-48-21.533-48-48s21.533-48 48-48 48 21.533 48 48-21.533 48-48 48zm-38.226 58.767l-12.717-13.179a8 8 0 00-4.333-2.317l-12.077-2.185 24.281-41.791c8.315 7.58 18.63 13 30.049 15.37l-25.203 44.102zM347.499 464l4.47-7.823L356.4 464h-8.901zm59.456 11.271a8 8 0 00-4.333 2.317l-12.688 13.148-24.958-44.061c11.423-2.362 21.743-7.776 30.065-15.351l24.039 41.753-12.125 2.194z"/><path d="M320 120a8 8 0 000-16H192a8 8 0 000 16h128zm40 24H152a8 8 0 000 16h208a8 8 0 000-16zm-184 80h8a8 8 0 000-16h-8a8 8 0 000 16zm0 40h8a8 8 0 000-16h-8a8 8 0 000 16zm0 40h8a8 8 0 000-16h-8a8 8 0 000 16zm160-96H216a8 8 0 000 16h120a8 8 0 000-16zm0 40H216a8 8 0 000 16h120a8 8 0 000-16zm0 40H216a8 8 0 000 16h120a8 8 0 000-16zm-192 88a8 8 0 008 8h72a8 8 0 000-16h-72a8 8 0 00-8 8z"/><path d="M256 432H143.196c-3.19-15.649-15.547-28.006-31.196-31.196V79.196c15.649-3.19 28.006-15.547 31.196-31.196h225.607c3.19 15.649 15.547 28.006 31.196 31.196V320a8 8 0 0016 0V72a8 8 0 00-8-8c-13.234 0-24-10.766-24-24a8 8 0 00-8-8H136a8 8 0 00-8 8c0 13.234-10.766 24-24 24a8 8 0 00-8 8v336a8 8 0 008 8c13.234 0 24 10.766 24 24a8 8 0 008 8h120a8 8 0 000-16z"/></svg>