<svg xmlns="http://www.w3.org/2000/svg" viewBox="0 0 512 512"><path d="M256.312 42.519c-162.58 0-267.814 176.467-183.302 321.861 82.561 138.705 283.61 139.437 366.606 0 20.727-35.659 30.064-72.89 30.064-108.493 0-116.619-94.966-213.368-213.368-213.368zm175.117 305.8l-17.993-10.388a7.508 7.508 0 00-10.258 2.748 7.509 7.509 0 002.749 10.258l17.962 10.37a199.68 199.68 0 01-62.187 62.099l-10.34-17.906a7.509 7.509 0 10-13.006 7.509l10.346 17.921c-25.521 13.509-54.326 21.603-84.881 22.747v-20.696a7.51 7.51 0 00-7.51-7.51 7.51 7.51 0 00-7.51 7.51v20.696c-30.555-1.144-59.36-9.238-84.881-22.747l10.346-17.921a7.509 7.509 0 00-2.749-10.258 7.509 7.509 0 00-10.258 2.749l-10.339 17.907a199.71 199.71 0 01-62.187-62.099l17.962-10.37a7.509 7.509 0 10-7.51-13.006L81.192 348.32c-13.556-25.525-21.692-54.345-22.867-84.922h20.889a7.51 7.51 0 007.51-7.51 7.51 7.51 0 00-7.51-7.51H58.313c1.115-30.604 9.203-59.456 22.721-85.017l18.155 10.481a7.508 7.508 0 0010.258-2.749 7.509 7.509 0 00-2.749-10.258l-18.146-10.476a199.701 199.701 0 0162.201-62.288l10.508 18.201a7.507 7.507 0 0010.258 2.749 7.509 7.509 0 002.748-10.258l-10.523-18.227c25.565-13.565 54.432-21.694 85.058-22.841v21.097a7.51 7.51 0 0015.02 0V57.695c30.626 1.147 59.493 9.275 85.058 22.841l-10.523 18.227a7.51 7.51 0 1013.006 7.509l10.508-18.201a199.705 199.705 0 0162.202 62.288l-18.146 10.476a7.51 7.51 0 007.509 13.007l18.155-10.481c13.518 25.561 21.605 54.413 22.721 85.017h-20.905a7.51 7.51 0 00-7.51 7.51 7.51 7.51 0 007.51 7.51h20.889c-1.176 30.576-9.311 59.396-22.867 84.921z"/><path d="M368.149 250.576l-23.439-23.439a7.51 7.51 0 00-10.62 10.621l10.723 10.723h-52.706v-9.063c0-10.766-8.759-19.525-19.525-19.525h-8.759v-90.239l10.723 10.724c1.466 1.467 3.388 2.2 5.31 2.2s3.844-.733 5.31-2.2a7.509 7.509 0 000-10.62l-23.44-23.44a7.506 7.506 0 00-10.62 0l-23.44 23.44a7.509 7.509 0 000 10.62 7.509 7.509 0 0010.62 0l10.517-10.517v90.033h-8.759c-10.766 0-19.525 8.759-19.525 19.525v32.537c0 10.766 8.759 19.525 19.525 19.525h32.537c10.766 0 19.525-8.759 19.525-19.525v-8.455h52.501l-10.516 10.516a7.509 7.509 0 000 10.62c1.466 1.467 3.388 2.2 5.31 2.2s3.844-.733 5.31-2.199l23.44-23.439a7.508 7.508 0 00-.002-10.623zm-91.063 21.379c0 2.442-2.064 4.506-4.506 4.506h-32.537c-2.442 0-4.506-2.064-4.506-4.506v-32.537c0-2.442 2.064-4.506 4.506-4.506h32.537c2.442 0 4.506 2.064 4.506 4.506v32.537zm234.895-34.315C503.095 110.558 401.193 8.885 274.358.018c-4.132-.279-7.726 2.831-8.015 6.968a7.511 7.511 0 006.968 8.015C392.5 23.334 488.665 119.499 496.998 238.688a7.51 7.51 0 0014.983-1.048z"/><path d="M505.013 265.718c-4.131-.296-7.726 2.83-8.015 6.967-8.794 125.773-114.517 224.295-240.686 224.295-133.049 0-241.293-108.243-241.293-241.293 0-126.17 98.522-231.892 224.294-240.686a7.51 7.51 0 006.968-8.015c-.289-4.137-3.881-7.242-8.015-6.968C104.85 9.347 0 120.802 0 255.687c0 141.331 114.981 256.312 256.312 256.312 134.844 0 246.336-104.813 255.669-238.266a7.51 7.51 0 00-6.968-8.015z"/></svg>