<svg height="512pt" viewBox="0 0 512 512.001" width="512pt" xmlns="http://www.w3.org/2000/svg"><path d="M487.777 147.164a7.514 7.514 0 00-13.597 6.395c15.129 32.156 22.797 66.62 22.797 102.441 0 64.367-25.067 124.879-70.582 170.395C380.883 471.91 320.367 496.977 256 496.977S131.117 471.91 85.605 426.395C40.09 380.883 15.023 320.367 15.023 256S40.09 131.121 85.605 85.605 191.633 15.023 256 15.023c81.5 0 156.879 40.739 201.64 108.977a7.512 7.512 0 0010.403 2.16 7.51 7.51 0 002.16-10.402C422.656 43.273 342.578 0 256 0 187.621 0 123.332 26.629 74.98 74.98 26.63 123.332 0 187.621 0 256c0 68.383 26.629 132.668 74.98 181.02C123.332 485.37 187.621 512 256 512c68.383 0 132.668-26.629 181.02-74.98C485.37 388.668 512 324.383 512 256c0-38.047-8.148-74.664-24.223-108.836zm0 0"/><path d="M256 469.031c117.469 0 213.031-95.566 213.031-213.031S373.47 42.969 256 42.969C138.535 42.969 42.969 138.535 42.969 256c0 38.133 10.195 75.55 29.488 108.207a7.513 7.513 0 0012.938-7.64C67.469 326.222 57.992 291.448 57.992 256 57.992 146.82 146.82 57.992 256 57.992c109.184 0 198.008 88.828 198.008 198.008S365.184 454.008 256 454.008c-58.14 0-113.125-25.418-150.848-69.738a7.513 7.513 0 00-11.441 9.738c40.582 47.68 99.734 75.023 162.289 75.023zm0 0"/><path d="M256 115.047a7.515 7.515 0 007.516-7.512v-28.09A7.513 7.513 0 00256 71.934a7.512 7.512 0 00-7.512 7.511v28.09a7.512 7.512 0 007.512 7.512zm-7.512 289.418v28.09c0 4.148 3.364 7.511 7.512 7.511s7.516-3.363 7.516-7.511v-28.09a7.513 7.513 0 00-7.516-7.512 7.512 7.512 0 00-7.512 7.512zM115.047 256a7.512 7.512 0 00-7.512-7.512H79.45a7.513 7.513 0 100 15.024h28.086a7.512 7.512 0 007.512-7.512zm317.508 7.512a7.512 7.512 0 000-15.024h-28.09a7.512 7.512 0 000 15.024zm-184.067-40.93c-12.867 2.89-23.015 13.035-25.906 25.906h-42.758a7.512 7.512 0 000 15.024h42.758c3.434 15.289 17.11 26.75 33.418 26.75 18.89 0 34.262-15.371 34.262-34.262 0-16.309-11.461-29.984-26.746-33.418v-79.937a7.513 7.513 0 00-7.516-7.512 7.512 7.512 0 00-7.512 7.512zM256 236.766c10.61 0 19.234 8.629 19.234 19.234S266.61 275.234 256 275.234c-10.605 0-19.234-8.629-19.234-19.234s8.629-19.234 19.234-19.234zm-77.328-113.903a9.694 9.694 0 01-9.695 9.696 9.694 9.694 0 110-19.387c5.355 0 9.695 4.34 9.695 9.691zm-50.594 60.289a9.694 9.694 0 01-9.695 9.696 9.694 9.694 0 110-19.387c5.355 0 9.695 4.34 9.695 9.691zm224.641-60.289a9.694 9.694 0 01-9.696 9.696c-5.351 0-9.695-4.34-9.695-9.696 0-5.351 4.344-9.691 9.695-9.691 5.356 0 9.696 4.34 9.696 9.691zm50.594 60.289a9.694 9.694 0 01-9.696 9.696 9.694 9.694 0 110-19.387c5.356 0 9.695 4.34 9.695 9.691zM178.672 389.137c0 5.351-4.34 9.691-9.695 9.691a9.694 9.694 0 110-19.387 9.694 9.694 0 019.695 9.696zm-50.594-60.289a9.694 9.694 0 01-9.695 9.695 9.694 9.694 0 01-9.695-9.695 9.694 9.694 0 019.695-9.696 9.694 9.694 0 019.695 9.696zm224.641 60.289c0 5.351-4.34 9.691-9.696 9.691-5.351 0-9.695-4.34-9.695-9.691 0-5.356 4.344-9.696 9.695-9.696a9.694 9.694 0 019.696 9.696zm50.594-60.289a9.694 9.694 0 01-9.696 9.695 9.694 9.694 0 01-9.695-9.695 9.694 9.694 0 019.695-9.696 9.694 9.694 0 019.695 9.696zm0 0"/></svg>