<svg xmlns="http://www.w3.org/2000/svg" viewBox="0 0 512.002 512.002" width="512" height="512"><path d="M494.841 166.183a7.501 7.501 0 00-13.871 5.711c10.488 25.477 16.032 54.56 16.032 84.105 0 74.637-34.665 138.083-82.521 160.14.599-4.824.911-9.693.911-14.566 0-21.666-5.935-42.853-17.162-61.27-6.549-10.741-10.01-23.114-10.01-35.783 0-12.662 3.461-25.032 10.009-35.773 11.229-18.417 17.163-39.604 17.163-61.27 0-21.671-5.935-42.861-17.162-61.279-6.549-10.741-10.01-23.111-10.01-35.773a68.688 68.688 0 013.479-21.638c27.957 4.83 54.188 23.583 73.557 53.114a7.5 7.5 0 0010.385 2.158 7.5 7.5 0 002.158-10.385c-25.485-38.855-62.108-61.14-100.48-61.14-28.074 0-54.949 11.579-77.721 33.485-19.929 19.173-35.481 45.049-45.327 75.21-33.97-33.234-75.213-55.144-116.435-61.778-42.927-6.904-80.76 3.48-106.53 29.249C6.917 173.093-3.779 208.746 1.19 249.094c4.838 39.288 24.124 79.643 54.305 113.629a7.485 7.485 0 005.611 2.52 7.502 7.502 0 005.606-12.481C38.53 321.028 20.548 283.56 16.077 247.26c-2.511-20.395-.578-39.337 5.469-55.759a118.4 118.4 0 009.632 10.916c15.319 15.318 34.497 26.104 55.46 31.188 12.227 2.966 23.423 9.268 32.381 18.226 8.953 8.952 15.253 20.146 18.218 32.372 5.084 20.964 15.869 40.142 31.188 55.461 15.324 15.323 34.504 26.11 55.467 31.193 12.226 2.967 23.421 9.267 32.374 18.219a68.637 68.637 0 0112.845 17.781c-19.796 14.008-45.824 19.936-74.831 16.773-35.325-3.848-72.133-20.703-103.643-47.463a7.5 7.5 0 00-9.709 11.433c40.292 34.218 86.75 51.867 128.29 51.867 31.689 0 60.519-10.276 81.55-31.307a99.144 99.144 0 005.285-5.729c23.263 23.938 51.86 37.033 81.268 37.033 36.443 0 70.541-19.407 96.01-54.646 24.938-34.504 38.673-80.253 38.673-128.819-.002-31.486-5.937-62.543-17.163-89.816zm-94.448 41.295c0 18.91-5.177 37.396-14.971 53.461-7.981 13.095-12.201 28.165-12.201 43.582 0 15.424 4.22 30.497 12.202 43.592 9.793 16.064 14.97 34.551 14.97 53.461 0 6.821-.683 13.631-2.018 20.279a86.35 86.35 0 01-20.124 2.595 83.707 83.707 0 003.167-22.874c0-15.417-4.219-30.487-12.2-43.582-9.795-16.066-14.972-34.556-14.972-53.471 0-18.909 5.177-37.396 14.972-53.462 7.981-13.094 12.2-28.164 12.2-43.581 0-15.423-4.219-30.497-12.2-43.592-9.795-16.066-14.972-34.553-14.972-53.461 0-6.789.673-13.566 1.997-20.184 6.595-1.699 13.331-2.617 20.147-2.694a83.705 83.705 0 00-3.169 22.878c0 15.417 4.22 30.487 12.201 43.582 9.794 16.065 14.971 34.555 14.971 53.471zM227.427 356.28c-18.285-4.435-35.021-13.848-48.396-27.224-13.371-13.37-22.782-30.104-27.217-48.389-3.615-14.904-11.288-28.544-22.189-39.444-10.906-10.905-24.548-18.58-39.451-22.196-18.285-4.435-35.019-13.846-48.389-27.216a103.166 103.166 0 01-12.895-15.743 86.013 86.013 0 0112.377-16.091 83.752 83.752 0 0013.935 18.417c10.902 10.901 24.541 18.573 39.444 22.188 18.286 4.436 35.021 13.85 48.396 27.225 13.37 13.369 22.781 30.102 27.216 48.388 3.614 14.901 11.287 28.541 22.189 39.445 10.905 10.904 24.547 18.58 39.451 22.196 18.287 4.435 35.02 13.846 48.389 27.217a102.95 102.95 0 0112.881 15.713 85.273 85.273 0 01-12.37 16.12 83.729 83.729 0 00-13.928-18.417c-10.9-10.9-24.54-18.573-39.443-22.189zm77.604 33.83c18.96-30.568 22.359-71.897 8.611-114.971-1.259-3.945-5.482-6.126-9.425-4.864a7.499 7.499 0 00-4.864 9.425c9.948 31.169 10.083 61.102 1.12 85.592a118.194 118.194 0 00-9.578-10.844c-15.318-15.319-34.496-26.104-55.46-31.188-12.227-2.967-23.423-9.27-32.38-18.226-8.954-8.955-15.255-20.15-18.219-32.374-5.084-20.964-15.869-40.142-31.188-55.46-15.323-15.322-34.504-26.11-55.468-31.195-12.225-2.965-23.419-9.265-32.372-18.217a68.67 68.67 0 01-12.856-17.791c48.98-34.787 131.874-17.031 192.711 43.805 16.741 16.742 30.508 35.381 40.918 55.398a7.501 7.501 0 0013.308-6.92c-8.993-17.292-20.316-33.602-33.748-48.64 13.288-46.715 40.973-82.134 73.989-97.585-.583 4.76-.887 9.562-.887 14.369 0 21.664 5.936 42.851 17.163 61.269 6.548 10.742 10.009 23.116 10.009 35.784 0 12.662-3.461 25.032-10.008 35.773-11.229 18.418-17.164 39.605-17.164 61.27 0 21.67 5.936 42.86 17.163 61.278 6.548 10.742 10.009 23.112 10.009 35.774a68.66 68.66 0 01-3.48 21.644c-20.933-3.609-41.004-15.029-57.904-33.106z"/></svg>