<svg xmlns="http://www.w3.org/2000/svg" viewBox="0 0 511 511"><path d="M487.5 208h-21.792c-5.402-24.064-14.791-46.742-27.971-67.562l15.399-15.4c9.163-9.163 9.163-24.071 0-33.234l-33.941-33.941c-4.438-4.439-10.34-6.883-16.617-6.883s-12.179 2.445-16.617 6.883l-15.399 15.399c-20.82-13.18-43.498-22.569-67.562-27.971V23.5C303 10.542 292.458 0 279.5 0h-48C218.542 0 208 10.542 208 23.5v21.792c-24.064 5.402-46.742 14.791-67.562 27.971l-15.399-15.399c-4.438-4.439-10.34-6.884-16.617-6.884s-12.179 2.445-16.617 6.883L57.864 91.805c-9.163 9.163-9.163 24.071 0 33.234l15.4 15.4c-13.18 20.82-22.569 43.498-27.971 67.561H23.5C10.542 208 0 218.542 0 231.5v48C0 292.458 10.542 303 23.5 303h21.793c5.402 24.064 14.791 46.741 27.971 67.561l-15.4 15.4c-4.438 4.438-6.883 10.34-6.883 16.617s2.445 12.178 6.883 16.617l33.941 33.941c4.438 4.438 10.34 6.883 16.617 6.883s12.179-2.445 16.617-6.883l15.4-15.4c20.82 13.18 43.497 22.568 67.562 27.971V487.5c0 12.958 10.542 23.5 23.5 23.5h48c12.958 0 23.5-10.542 23.5-23.5v-21.792c24.064-5.402 46.741-14.791 67.562-27.971l15.399 15.4c4.438 4.438 10.34 6.883 16.617 6.883s12.179-2.445 16.617-6.883l33.941-33.941c4.438-4.438 6.883-10.34 6.883-16.617s-2.445-12.179-6.883-16.617l-15.399-15.399c13.18-20.82 22.568-43.497 27.971-67.562H487.5c12.958 0 23.5-10.542 23.5-23.5v-48C511 218.542 500.458 208 487.5 208zm8.5 71.5c0 4.687-3.813 8.5-8.5 8.5h-27.883a7.5 7.5 0 00-7.361 6.065c-5.14 26.378-15.351 51.041-30.348 73.303a7.499 7.499 0 00.917 9.493l19.705 19.705a8.448 8.448 0 012.49 6.011c0 2.27-.884 4.405-2.49 6.01l-33.941 33.941c-1.605 1.605-3.74 2.49-6.011 2.49s-4.405-.884-6.01-2.49l-19.706-19.706a7.498 7.498 0 00-9.493-.917c-22.264 14.998-46.927 25.208-73.304 30.348a7.498 7.498 0 00-6.065 7.361V487.5c0 4.687-3.813 8.5-8.5 8.5h-48c-4.687 0-8.5-3.813-8.5-8.5v-27.883a7.498 7.498 0 00-6.065-7.361c-26.377-5.14-51.041-15.351-73.303-30.348a7.485 7.485 0 00-4.188-1.28 7.492 7.492 0 00-5.306 2.197l-19.706 19.706c-1.605 1.605-3.739 2.49-6.01 2.49s-4.405-.884-6.011-2.49L68.47 408.589a8.446 8.446 0 01-2.49-6.01c0-2.271.884-4.405 2.49-6.011l19.706-19.706a7.499 7.499 0 00.917-9.493c-14.998-22.263-25.208-46.926-30.348-73.303a7.5 7.5 0 00-7.361-6.065H23.5c-4.687 0-8.5-3.813-8.5-8.5v-48c0-4.687 3.813-8.5 8.5-8.5h27.883a7.5 7.5 0 007.361-6.065c5.14-26.377 15.351-51.04 30.348-73.303a7.499 7.499 0 00-.917-9.493L68.47 114.432c-3.314-3.314-3.314-8.707 0-12.021l33.941-33.941c1.605-1.605 3.74-2.49 6.011-2.49s4.405.884 6.01 2.49l19.705 19.705a7.501 7.501 0 009.494.917c22.263-14.997 46.926-25.208 73.304-30.348A7.5 7.5 0 00223 51.382V23.5c0-4.687 3.813-8.5 8.5-8.5h48c4.687 0 8.5 3.813 8.5 8.5v27.883a7.501 7.501 0 006.065 7.362c26.377 5.14 51.04 15.35 73.304 30.348a7.5 7.5 0 009.494-.917l19.706-19.705c1.605-1.605 3.739-2.49 6.01-2.49s4.405.884 6.011 2.49l33.941 33.941c3.314 3.314 3.314 8.707 0 12.021l-19.705 19.705a7.499 7.499 0 00-.917 9.493c14.998 22.264 25.208 46.927 30.348 73.304a7.498 7.498 0 007.361 6.065H487.5c4.687 0 8.5 3.813 8.5 8.5v48z"/><path d="M119 255.5c0-75.266 61.234-136.5 136.5-136.5 18.423 0 36.292 3.605 53.108 10.715a7.5 7.5 0 105.841-13.816C295.774 108.004 275.941 104 255.5 104 171.962 104 104 171.963 104 255.5c0 34.6 11.969 68.436 33.702 95.275a7.483 7.483 0 005.833 2.781 7.464 7.464 0 004.715-1.672 7.5 7.5 0 001.109-10.548C129.782 317.159 119 286.675 119 255.5zm266.298-62.886a7.5 7.5 0 00-3.992 9.827C388.402 219.245 392 237.097 392 255.5c0 75.266-61.233 136.5-136.5 136.5-31.162 0-61.636-10.774-85.808-30.337a7.5 7.5 0 00-9.436 11.66C187.089 395.04 220.914 407 255.5 407c83.538 0 151.5-67.963 151.5-151.5 0-20.419-3.996-40.234-11.875-58.894a7.501 7.501 0 00-9.827-3.992zm-44.006-43.29a137.692 137.692 0 0120.394 20.396 7.485 7.485 0 005.835 2.783 7.5 7.5 0 005.826-12.217 152.624 152.624 0 00-22.621-22.623 7.5 7.5 0 00-9.434 11.661z"/><path d="M255.5 136C189.607 136 136 189.608 136 255.5S189.607 375 255.5 375 375 321.393 375 255.5 321.393 136 255.5 136zm0 224C197.878 360 151 313.122 151 255.5S197.878 151 255.5 151 360 197.879 360 255.5 313.122 360 255.5 360z"/></svg>