<svg xmlns="http://www.w3.org/2000/svg" viewBox="0 0 512 512"><path d="M358.448 153.598c-39.66-39.659-92.39-61.501-148.476-61.501-56.088 0-108.818 21.842-148.477 61.502a7.647 7.647 0 0010.814 10.814c36.771-36.771 85.66-57.022 137.662-57.022 52.001 0 100.891 20.25 137.662 57.022 36.771 36.771 57.021 85.66 57.021 137.662 0 52.002-20.25 100.891-57.021 137.662-75.907 75.907-199.417 75.908-275.325 0-32.04-32.04-51.992-74.487-56.18-119.523-4.136-44.463 7.17-89.27 31.834-126.168a7.647 7.647 0 10-12.715-8.499C8.639 225.355-3.558 273.684.901 321.631c4.518 48.58 26.038 94.365 60.594 128.921 40.935 40.935 94.706 61.403 148.476 61.403 53.771 0 107.542-20.468 148.477-61.403 39.66-39.66 61.502-92.39 61.502-148.476 0-56.088-21.842-108.818-61.502-148.478z"/><path d="M330.39 181.658c-66.399-66.398-174.437-66.399-240.836 0-66.398 66.399-66.398 174.437 0 240.835 33.199 33.199 76.809 49.799 120.418 49.799 43.61 0 87.219-16.6 120.419-49.799 66.398-66.399 66.398-174.437-.001-240.835zm-10.814 230.02c-60.434 60.434-158.77 60.435-219.207 0-60.435-60.435-60.435-158.77 0-219.206 30.218-30.217 69.91-45.327 109.604-45.327 39.692 0 79.386 15.109 109.604 45.327 60.434 60.435 60.434 158.771-.001 219.206z"/><path d="M450.598 61.448c-81.87-81.87-215.083-81.87-296.954 0A212.98 212.98 0 00139.5 77.066a7.647 7.647 0 1011.835 9.686 197.652 197.652 0 0113.123-14.491c75.908-75.907 199.418-75.906 275.325 0 75.907 75.908 75.907 199.418 0 275.325a197.36 197.36 0 01-14.491 13.123 7.647 7.647 0 009.687 11.836 212.493 212.493 0 0015.617-14.144c81.872-81.87 81.872-215.082.002-296.953z"/><path d="M465.806 162.836a7.645 7.645 0 00-9.459-5.242 7.649 7.649 0 00-5.243 9.459c12.284 42.83 5.635 88.831-18.242 126.209a7.648 7.648 0 0012.889 8.233c26.239-41.074 33.548-91.613 20.055-138.659zm-12.291-30.975c-8.042-15.587-18.465-29.835-30.98-42.35-27.591-27.591-64.12-44.984-102.859-48.977-38.184-3.936-76.928 5.212-109.095 25.759a7.647 7.647 0 108.233 12.889c29.268-18.695 64.531-27.019 99.292-23.435 35.254 3.633 68.499 19.464 93.613 44.577 11.397 11.397 20.886 24.367 28.203 38.548a7.647 7.647 0 1013.593-7.011zM217.619 294.895v-63.309c18.185 2.863 31.947 15.726 31.947 31.122a7.647 7.647 0 0015.294 0c0-23.701-20.585-43.351-47.242-46.549v-8.567a7.647 7.647 0 00-15.294 0v8.567c-26.658 3.199-47.242 22.848-47.242 46.549s20.585 43.351 47.242 46.549v63.31c-18.186-2.863-31.948-15.727-31.948-31.123a7.647 7.647 0 00-15.294 0c0 23.701 20.585 43.351 47.242 46.549v8.567a7.647 7.647 0 0015.294 0v-8.567c26.658-3.199 47.242-22.848 47.242-46.549.001-23.701-20.584-43.351-47.241-46.549zm-15.294-1.066c-18.186-2.863-31.948-15.726-31.948-31.122 0-15.395 13.763-28.259 31.948-31.122v62.244zm15.294 78.737v-62.244c18.185 2.863 31.947 15.726 31.947 31.121.001 15.396-13.762 28.26-31.947 31.123z"/></svg>