<svg xmlns="http://www.w3.org/2000/svg" width="512" height="512"><path d="M484.636 351.192c15.089 0 27.364-12.275 27.364-27.364 0-35.645-22.292-67.86-55.472-80.164-5.926-2.197-12.045-3.962-18.177-5.375l.002-.821c0-58.544-22.798-113.584-64.195-154.98-41.396-41.397-96.437-64.195-154.981-64.195S105.593 41.091 64.196 82.488C22.798 123.885 0 178.925 0 237.469S22.798 351.054 64.195 392.45c41.397 41.397 96.437 64.195 154.981 64.195 6.674 0 13.379-.304 20.022-.905v9.313c0 15.8 12.854 28.653 28.653 28.653h203.955c15.8 0 28.653-12.854 28.653-28.653v-55.371a28.556 28.556 0 00-7.749-19.598l-38.169-40.714a26.225 26.225 0 009.562 1.822h20.533zm-97.281-118.214h-35.053c-8.723 0-19.363.417-30.678 1.794-.106-19.303-1.349-38.213-3.66-56.351h96.684c5.477 18.097 8.504 37.247 8.694 57.063-13.277-1.951-25.91-2.506-35.987-2.506zm22.532 86.467h-14.784v-11.261c0-.479.391-.87.87-.87h13.044c.479 0 .87.391.87.87v11.261zm5.624-25.74a15.778 15.778 0 00-6.494-1.39h-13.044c-8.751 0-15.87 7.119-15.87 15.87v11.261H360.73v-11.261c0-8.751-7.119-15.87-15.87-15.87h-13.044c-8.751 0-15.87 7.119-15.87 15.87v12.137a19.87 19.87 0 00-8.646 5.385l-5.786 6.172a25.66 25.66 0 001.082-5.636c1.84-23.836 13.286-36.308 23.643-36.308h87.182c1.046 0 2.061.107 3.046.313a213.604 213.604 0 01-.956 3.457zm-69.782 25.74h-14.784v-11.261c0-.479.391-.87.87-.87h13.044c.479 0 .87.391.87.87v11.261zm-98.781 70.64a28.559 28.559 0 00-7.75 19.598v26.278c-6.58 3.774-13.299 5.685-20.022 5.685-21.91 0-43.889-20.982-60.3-57.568-9.39-20.933-16.517-45.612-21.109-72.56h90.784a85.312 85.312 0 00-.893 12.311c0 15.089 12.275 27.364 27.364 27.364h20.531c3.33 0 6.561-.647 9.563-1.822l-38.168 40.714zm-14.805-93.567h-96.639c-2.493-18.91-3.783-38.75-3.783-59.049 0-20.219 1.29-40.061 3.802-59.048h167.326c2.48 18.811 3.769 38.541 3.782 58.729-7.899 1.566-15.861 3.681-23.502 6.515-24.385 9.042-42.89 28.841-50.986 52.853zm177.316-133.097h-93.677c-4.79-29.195-12.436-55.997-22.62-78.699-8.942-19.933-19.412-35.699-30.923-46.859 67.429 14.532 122.584 62.466 147.22 125.558zM176.089 37.867c-11.789 11.438-22.481 27.712-31.567 48.358a7.501 7.501 0 003.844 9.886 7.505 7.505 0 009.886-3.845c16.492-37.479 38.698-58.974 60.925-58.974 21.91 0 43.888 20.982 60.3 57.568 9.39 20.933 16.518 45.612 21.11 72.56H137.793c2.616-15.315 6.059-29.956 10.289-43.651a7.5 7.5 0 00-14.332-4.428c-4.653 15.062-8.389 31.199-11.163 48.079H28.893c24.634-63.083 79.779-111.014 147.196-125.553zM23.703 178.421H120.4c-2.432 19.047-3.679 38.878-3.679 59.048 0 20.239 1.249 40.067 3.667 59.049H23.704c-5.66-18.7-8.704-38.526-8.704-59.049 0-20.523 3.044-40.348 8.703-59.048zm5.19 133.097h93.677c4.79 29.195 12.436 55.997 22.62 78.699 8.942 19.933 19.412 35.699 30.923 46.859-67.428-14.532-122.583-62.467-147.22-125.558zm456.567 98.165v55.371c0 7.528-6.125 13.653-13.653 13.653H267.852c-7.528 0-13.653-6.125-13.653-13.653v-17.492a6.807 6.807 0 000-.35v-37.529c0-3.481 1.312-6.798 3.692-9.338l60.353-64.378a4.831 4.831 0 013.513-1.521h96.146c1.326 0 2.606.555 3.513 1.521l60.353 64.378a13.61 13.61 0 013.691 9.338zm-53.102-83.976a19.834 19.834 0 00-7.472-4.983v-7.449a218.14 218.14 0 004.328-12.989c4.4 6.922 7.116 16.47 7.848 25.957.15 1.938.519 3.825 1.082 5.636l-5.786-6.172zm19.66-.619c-2.659-34.459-21.872-50.153-38.598-50.153h-87.182c-9.323 0-18.624 4.818-25.517 13.22-7.389 9.005-11.912 21.776-13.081 36.934-.465 6.02-6 11.104-12.087 11.104h-20.531c-6.818 0-12.364-5.547-12.364-12.364 0-29.403 18.36-55.967 45.687-66.1 21.735-8.06 46.777-9.751 63.958-9.751h35.053c17.181 0 42.224 1.691 63.958 9.751C478.64 267.862 497 294.426 497 323.828c0 6.817-5.547 12.364-12.364 12.364h-20.531c-6.087 0-11.623-5.085-12.087-11.104z"/><path d="M409.023 392.454a7.501 7.501 0 00-4.307 9.693c5.339 13.876 1.998 29.633-8.513 40.143-7.106 7.107-16.555 11.021-26.605 11.021s-19.499-3.914-26.605-11.021c-7.107-7.106-11.021-16.555-11.021-26.605s3.914-19.498 11.021-26.604c11.98-11.982 30.604-14.477 45.286-6.069a7.498 7.498 0 0010.235-2.78 7.5 7.5 0 00-2.78-10.235c-20.544-11.766-46.593-8.279-63.348 8.478-9.94 9.939-15.415 23.155-15.415 37.212s5.475 27.272 15.414 37.213c10.26 10.259 23.736 15.389 37.213 15.389s26.953-5.13 37.213-15.389c14.697-14.698 19.37-36.733 11.905-56.137a7.495 7.495 0 00-9.693-4.309z"/></svg>