<svg xmlns="http://www.w3.org/2000/svg" viewBox="0 0 512 512"><path d="M503.983 4.276H8.017A8.016 8.016 0 000 12.292v487.416a8.017 8.017 0 008.017 8.017h495.966a8.017 8.017 0 008.017-8.017V12.292a8.016 8.016 0 00-8.017-8.016zm-8.016 487.415H16.033V122.923h479.934v368.768zm0-384.802H16.033v-86.58h479.934v86.58z"/><path d="M427.023 38.48H332.96a8.017 8.017 0 000 16.034h94.063a8.017 8.017 0 000-16.034zm42.756 0h-17.102a8.017 8.017 0 000 16.034h17.102a8.017 8.017 0 000-16.034zm-205.228-8.551c-3.835 0-7.612.647-11.222 1.924-.009.003-.016.008-.025.01-13.412 4.754-22.423 17.504-22.423 31.737 0 14.232 9.011 26.982 22.422 31.737l.025.011a33.598 33.598 0 0011.222 1.924c18.566 0 33.67-15.105 33.67-33.67s-15.103-33.673-33.669-33.673zm0 51.307c-2.011 0-3.988-.339-5.88-1.007l-.003-.001c-7.03-2.488-11.754-9.17-11.754-16.629s4.723-14.14 11.755-16.629l.003-.001a17.582 17.582 0 015.88-1.007c9.725 0 17.637 7.912 17.637 17.637s-7.913 17.637-17.638 17.637zm-94.062-51.307c-18.566 0-33.67 15.105-33.67 33.67s15.105 33.67 33.67 33.67 33.67-15.104 33.67-33.67-15.105-33.67-33.67-33.67zm0 51.307c-9.725 0-17.637-7.912-17.637-17.637s7.912-17.637 17.637-17.637 17.637 7.912 17.637 17.637-7.913 17.637-17.637 17.637zM76.426 29.929c-18.566 0-33.67 15.105-33.67 33.67s15.105 33.67 33.67 33.67 33.67-15.104 33.67-33.67-15.104-33.67-33.67-33.67zm0 51.307c-9.725 0-17.637-7.912-17.637-17.637s7.912-17.637 17.637-17.637 17.637 7.912 17.637 17.637-7.912 17.637-17.637 17.637zm404.028 133.301l-84.651-84.653a8.017 8.017 0 00-11.338 0L330.5 183.85H72.15a8.017 8.017 0 000 16.034h242.316l-64.135 64.135-56.65 56.65H72.15a8.017 8.017 0 000 16.034h105.497l-17.278 17.278-.027.027-.014.014c-.025.025-.045.051-.069.077a8.617 8.617 0 00-.461.51c-.055.065-.1.135-.153.202-.108.14-.216.28-.315.429-.065.097-.122.199-.183.299-.074.122-.151.243-.218.37-.068.128-.127.26-.188.39-.049.105-.102.207-.146.315-.067.162-.124.329-.181.495-.028.082-.06.161-.086.245a7.536 7.536 0 00-.162.642c-.009.042-.022.081-.031.123l-.005.025-.005.029-19.862 99.316H72.15a8.017 8.017 0 000 16.034h72.641l.036.001h.018l.036-.001h6.276a7.98 7.98 0 005.514-2.208l35.038-7.008.015-.003.032-.006 60.415-12.083.023-.004.028-.005c.047-.01.091-.025.138-.035.21-.046.419-.096.625-.158.088-.027.171-.061.258-.09.161-.056.324-.11.482-.175.112-.047.219-.102.328-.153.126-.059.253-.115.377-.182.13-.07.253-.148.378-.223.097-.059.197-.114.291-.177.149-.099.29-.208.431-.316.066-.051.136-.097.201-.152a8.03 8.03 0 00.503-.455c.027-.027.057-.048.082-.075l.016-.016.025-.025 5.309-5.309 110.306-110.306 48.015-48.015 60.465-60.465c3.132-3.136 3.132-8.212.002-11.342zM202.669 334.353l.003-.002 58.998-58.998 68-68 15.872 15.873L193.208 375.56l-15.873-15.873 25.334-25.334zm154.209-99.789l18.896 18.896-69.556 69.556-55.886 55.886-26.891 26.891-18.896-18.896 152.333-152.333zM155.055 455.283l3.774-18.869 15.095 15.095-18.869 3.774zm37.764-7.552l-30.211-30.211 8.314-41.57 16.618 16.618 30.233 30.233 16.618 16.617-41.572 8.313zm167.818-124.715L250.65 433.002l-15.873-15.872 26.891-26.891 55.886-55.886 69.556-69.556 15.872 15.872-42.345 42.347zm53.683-53.684l-21.54-21.54-30.234-30.233-21.54-21.541 49.129-49.128 73.314 73.314-49.129 49.128z"/><path d="M394.211 169.096a8.016 8.016 0 00-11.337 0l-19.24 19.24a8.016 8.016 0 005.668 13.685 7.988 7.988 0 005.668-2.348l19.24-19.24a8.015 8.015 0 00.001-11.337z"/></svg>