<svg xmlns="http://www.w3.org/2000/svg" viewBox="0 0 463 463"><path d="M413.706 195.289a7.51 7.51 0 00-7.056-3.241c-20.458 2.335-40.937 10.581-61.032 24.509-5.439-46.427-14.892-88.757-27.891-123.791C295.532 32.945 264.909 0 231.5 0c-19.675 0-48.697 11.572-75.226 66.704-18.539 38.528-31.916 90.144-38.901 149.876-18.084-12.563-38.586-21.972-61.024-24.532a7.51 7.51 0 00-7.054 3.237c-1.69 2.488-1.79 3.121.217 17.192.996 6.983 2.801 18.095 5.748 31.37 5.201 23.438 15.028 58.226 32.307 90.855 15.044 28.41 33.386 50.917 54.516 66.896 17.685 13.374 37.385 22.227 58.828 26.473l4.282 17.128a23.467 23.467 0 0022.798 17.8h7.015a23.465 23.465 0 0022.798-17.8l4.282-17.129c21.431-4.244 41.119-13.089 58.796-26.449 21.126-15.967 39.467-38.459 54.512-66.852 17.295-32.639 27.131-67.444 32.337-90.896 2.949-13.284 4.756-24.402 5.752-31.391 2.01-14.073 1.911-14.706.223-17.193zM169.791 73.207C187.852 35.672 209.768 15 231.5 15c16.745 0 33.49 12.284 48.5 34.813V55.5a7.5 7.5 0 007.5 7.5c.149 0 .296-.014.443-.022 5.587 10.204 10.862 21.91 15.722 35.007 13.236 35.672 22.69 79.261 27.836 127.179A7.458 7.458 0 00327.5 224a7.5 7.5 0 00-7.5 7.5v16a7.5 7.5 0 007.5 7.5 7.486 7.486 0 006.364-3.545c1.412 19.512 2.136 39.6 2.136 60.045 0 5.085-.372 10.084-1.078 14.977-.5-3.657-3.628-6.477-7.422-6.477a7.5 7.5 0 00-7.5 7.5v16a7.5 7.5 0 008.256 7.462 104.396 104.396 0 01-10.835 19.945 7.48 7.48 0 00-5.92-2.907 7.5 7.5 0 00-7.5 7.5v11.184c-17.211 16.603-40.088 27.365-65.409 29.07-.525-5.481-1.565-11.501-3.071-17.93A7.488 7.488 0 00239 391.5v-16a7.5 7.5 0 00-7.5-7.5 7.463 7.463 0 00-4.595 1.581c-3.878-10.577-8.576-21.613-13.939-32.707A7.464 7.464 0 00215 331.75v-4.25a7.5 7.5 0 00-10.378-6.926 398.047 398.047 0 00-10.401-18.091A7.497 7.497 0 00199 295.5v-16c0-4.143-3.358-7.5-7.5-7.5s-7.5 3.357-7.5 7.5v7.145c-12.123-17.737-30.092-40.563-52.708-59.432 6.407-61.052 20.039-115.641 38.499-154.006zM92.313 310.119c-16.101-36.336-23.687-72.661-27.01-93.457 7.869 7.083 15.341 16.003 22.598 26.98a7.493 7.493 0 0010.392 2.119 7.5 7.5 0 002.12-10.393c-4.932-7.459-9.992-14.077-15.223-19.931 40.645 17.911 72.312 58.263 89.303 83.951 21.658 32.745 44.533 81.399 48.791 114.1-39.009-13.17-60.649-52.986-80.99-96.253a7.5 7.5 0 00-13.576 6.381c14.876 31.644 31.391 63.183 55.626 84.226-14.733-5.436-28.379-13.561-40.818-24.381-20.206-17.579-37.437-42.255-51.213-73.342zm150.94 131.444a8.487 8.487 0 01-8.246 6.438h-7.015a8.488 8.488 0 01-8.247-6.438l-2.802-11.208c4.764.425 9.604.645 14.519.646l.045.002c.02 0 .039-.002.059-.003 4.905-.002 9.734-.221 14.489-.645l-2.802 11.208zm127.432-131.44c-8.934 20.161-19.331 37.607-31.042 52.188C346.921 346.882 351 329.66 351 311.5c0-26.635-1.216-52.697-3.565-77.728 17.086-13.084 34.347-21.553 51.469-25.258-2.473 18.215-9.737 59.903-28.219 101.609z"/><path d="M231.5 207a7.5 7.5 0 007.5-7.5v-16c0-4.143-3.358-7.5-7.5-7.5s-7.5 3.357-7.5 7.5v16a7.5 7.5 0 007.5 7.5zm40 0a7.5 7.5 0 007.5-7.5v-16c0-4.143-3.358-7.5-7.5-7.5s-7.5 3.357-7.5 7.5v16a7.5 7.5 0 007.5 7.5zm-80 0a7.5 7.5 0 007.5-7.5v-16c0-4.143-3.358-7.5-7.5-7.5s-7.5 3.357-7.5 7.5v16a7.5 7.5 0 007.5 7.5zm-32.5-7.5v-16c0-4.143-3.358-7.5-7.5-7.5s-7.5 3.357-7.5 7.5v16c0 4.143 3.358 7.5 7.5 7.5s7.5-3.357 7.5-7.5zm152.5 7.5a7.5 7.5 0 007.5-7.5v-16c0-4.143-3.358-7.5-7.5-7.5s-7.5 3.357-7.5 7.5v16a7.5 7.5 0 007.5 7.5zm-80 96a7.5 7.5 0 007.5-7.5v-16c0-4.143-3.358-7.5-7.5-7.5s-7.5 3.357-7.5 7.5v16a7.5 7.5 0 007.5 7.5zm40 0a7.5 7.5 0 007.5-7.5v-16c0-4.143-3.358-7.5-7.5-7.5s-7.5 3.357-7.5 7.5v16a7.5 7.5 0 007.5 7.5zm40 0a7.5 7.5 0 007.5-7.5v-16c0-4.143-3.358-7.5-7.5-7.5s-7.5 3.357-7.5 7.5v16a7.5 7.5 0 007.5 7.5zm-40 96a7.5 7.5 0 007.5-7.5v-16c0-4.143-3.358-7.5-7.5-7.5s-7.5 3.357-7.5 7.5v16a7.5 7.5 0 007.5 7.5zm-40-288a7.5 7.5 0 007.5-7.5v-16c0-4.143-3.358-7.5-7.5-7.5s-7.5 3.357-7.5 7.5v16a7.5 7.5 0 007.5 7.5zm40 0a7.5 7.5 0 007.5-7.5v-16c0-4.143-3.358-7.5-7.5-7.5s-7.5 3.357-7.5 7.5v16a7.5 7.5 0 007.5 7.5zm-80 0a7.5 7.5 0 007.5-7.5v-16c0-4.143-3.358-7.5-7.5-7.5s-7.5 3.357-7.5 7.5v16a7.5 7.5 0 007.5 7.5zm56 48a7.5 7.5 0 007.5-7.5v-16c0-4.143-3.358-7.5-7.5-7.5s-7.5 3.357-7.5 7.5v16a7.5 7.5 0 007.5 7.5zm40 0a7.5 7.5 0 007.5-7.5v-16c0-4.143-3.358-7.5-7.5-7.5s-7.5 3.357-7.5 7.5v16a7.5 7.5 0 007.5 7.5zm-80 0a7.5 7.5 0 007.5-7.5v-16c0-4.143-3.358-7.5-7.5-7.5s-7.5 3.357-7.5 7.5v16a7.5 7.5 0 007.5 7.5zm-40 0a7.5 7.5 0 007.5-7.5v-16c0-4.143-3.358-7.5-7.5-7.5s-7.5 3.357-7.5 7.5v16a7.5 7.5 0 007.5 7.5zm80 96a7.5 7.5 0 007.5-7.5v-16c0-4.143-3.358-7.5-7.5-7.5s-7.5 3.357-7.5 7.5v16a7.5 7.5 0 007.5 7.5zm40 0a7.5 7.5 0 007.5-7.5v-16c0-4.143-3.358-7.5-7.5-7.5s-7.5 3.357-7.5 7.5v16a7.5 7.5 0 007.5 7.5zm-80 0a7.5 7.5 0 007.5-7.5v-16c0-4.143-3.358-7.5-7.5-7.5s-7.5 3.357-7.5 7.5v16a7.5 7.5 0 007.5 7.5zm-40 0a7.5 7.5 0 007.5-7.5v-16c0-4.143-3.358-7.5-7.5-7.5s-7.5 3.357-7.5 7.5v16a7.5 7.5 0 007.5 7.5zm80 96a7.5 7.5 0 007.5-7.5v-16c0-4.143-3.358-7.5-7.5-7.5s-7.5 3.357-7.5 7.5v16a7.5 7.5 0 007.5 7.5zm40 0a7.5 7.5 0 007.5-7.5v-16c0-4.143-3.358-7.5-7.5-7.5s-7.5 3.357-7.5 7.5v16a7.5 7.5 0 007.5 7.5zm-40-288a7.5 7.5 0 007.5-7.5v-16c0-4.143-3.358-7.5-7.5-7.5s-7.5 3.357-7.5 7.5v16a7.5 7.5 0 007.5 7.5zm-40 0a7.5 7.5 0 007.5-7.5v-16c0-4.143-3.358-7.5-7.5-7.5s-7.5 3.357-7.5 7.5v16a7.5 7.5 0 007.5 7.5zm-89.311 203.364a7.5 7.5 0 10-13.362 6.815c2.618 5.134 5.421 10.86 8.568 17.505a7.5 7.5 0 006.783 4.292 7.5 7.5 0 006.774-10.712c-3.211-6.78-6.078-12.635-8.763-17.9z"/></svg>