<svg xmlns="http://www.w3.org/2000/svg" viewBox="0 0 235.5 235.5"><path d="M118.1 235.5c7.9 0 14.3-6 14.3-13.5v-13.5c39.1-3.6 64.9-24.2 64.9-57.8v-.5c.2-7.1-.8-17.4-6.7-27.4-11.5-19.5-36.7-29.8-64.3-26.5-.2-13.9-.4-27.8-.7-41.7 5.2-.1 11.8.5 19 2.7 2.2.7 4.2 1.4 6.1 2.2 0 0 22.7 7 29-3.2 6.2-10.2 2.9-24.5-8.7-29.7-11.5-5.2-24.1-8.7-38.1-10.2V8.3c0-4.6-6.4-8.3-14.3-8.3s-14.3 3.5-14.3 7.8v7.8c-42.1 3-65.8 25.6-65.8 58.1v.6c0 7.1 1.1 16.9 6.5 26.7 11 19.9 35 31.2 62 30.3-.3 12.8-.5 25.7-.8 38.5-13.9-4.5-25.7-6.4-34.3-7.3-17.7-1.8-22.3.7-24.8 3.3-4.3 4.4-4.7 11.5-3.8 15.8 3.1 13.9 27.1 23.2 59.2 24.5.4 5.3.7 10.5 1.1 15.8.2 7.5 6.6 13.6 14.5 13.6zm13.2-104.8c15.4-3 28.7 2 32 9.8.9 2.1 2.1 7 1.2 12.7-.6 3.4-1.7 6-2.7 7.7-1.4 2.3-3.5 5.1-6.7 7.5-10 7.6-22.4 5-24.7 4.4.4-14.1.7-28.1.9-42.1zM79.5 74c-.3-1.5-.7-3-1-4.5.5-3.5 1.7-5.9 2.8-7.5 6.8-10.5 22.4-9.4 23.4-9.3l.6 44.1c-1.8-.1-16.1-1.5-22.8-13-2-3.6-2.8-7.1-3-9.8z" fill="#010002"/></svg>