<svg height="512pt" viewBox="-26 0 512 512.001" width="512pt" xmlns="http://www.w3.org/2000/svg"><path d="M453.398 282.738a7.514 7.514 0 00-7.515 7.516v186.723c0 7.843-4.547 14.625-11.137 17.898L315.434 310.094c-.215-.332-.446-.649-.664-.977l131.113-130.375v76.781a7.513 7.513 0 007.515 7.512 7.512 7.512 0 007.512-7.512s-.074-95.875-.105-96.05c-.012-.078-.02-.16-.035-.235-.723-3.707-4.18-5.535-6.973-7.562-2.04-1.48-4.078-2.957-6.113-4.438-11.246-8.168-22.493-16.332-33.739-24.5-6.738-4.89-13.476-9.785-20.21-14.676V75.953c0-8.394-6.833-15.226-15.227-15.226h-49.961l-73.824-53.61a8.704 8.704 0 00-.465-.308c-14.68-9.079-32.914-9.079-47.594 0a7.086 7.086 0 00-.46.308l-73.829 53.61h-49.96c-8.395 0-15.224 6.832-15.224 15.226v32.11c-6.027 4.374-12.05 8.75-18.078 13.124l-32.199 23.387c-3.539 2.57-7.078 5.14-10.617 7.707-.89.649-1.797 1.274-2.672 1.942-4.066 3.101-3.61 7.09-3.61 11.472V476.98c0 15.497 10.122 28.665 24.098 33.266A7.501 7.501 0 0028.922 512h403.082c1.789 0 3.48-.645 4.809-1.754 13.976-4.601 24.097-17.77 24.097-33.266V290.254a7.513 7.513 0 00-7.512-7.516zm-59.664-156.105l48.106 34.933-48.106 47.836zM82.191 75.949c0-.125.102-.222.227-.222h163.406a7.5 7.5 0 007.5-7.5 7.5 7.5 0 00-7.5-7.5h-87.87l56.843-41.278c9.687-5.879 21.644-5.879 31.332 0l56.848 41.278h-22.082a7.5 7.5 0 00-7.5 7.5 7.5 7.5 0 007.5 7.5h97.617a.22.22 0 01.222.222V224.32L255.391 346.973c-13.746 13.668-36.11 13.668-49.856 0L82.191 224.32zm-15 50.684v82.77l-48.105-47.837zM26.18 494.875c-6.586-3.273-11.137-10.055-11.137-17.898V178.738l131.113 130.38c-.219.327-.449.644-.664.976zm16.539 2.094L157.03 319.934l37.906 37.695a50.488 50.488 0 007.055 5.824c.242.164.48.34.727.5.215.145.437.277.652.414 8.024 5.137 17.344 7.903 27.09 7.903 9.77 0 19.113-2.778 27.14-7.934.2-.125.403-.246.598-.375.262-.176.512-.36.77-.535a50.273 50.273 0 007.02-5.797l37.906-37.7 114.312 177.04zm0 0"/><path d="M133.648 125.977h27.04a7.5 7.5 0 100-15h-27.04a7.5 7.5 0 00-7.5 7.5c0 4.144 3.356 7.5 7.5 7.5zm59.688 0h74.121c4.145 0 7.5-3.356 7.5-7.5a7.5 7.5 0 00-7.5-7.5h-74.121a7.5 7.5 0 100 15zm-59.688 45.14h193.633a7.5 7.5 0 100-15H133.648a7.5 7.5 0 00-7.5 7.5c0 4.145 3.356 7.5 7.5 7.5zm0 33.703h193.633a7.5 7.5 0 100-15H133.648a7.5 7.5 0 00-7.5 7.5c0 4.145 3.356 7.5 7.5 7.5zm127.731 26.203c0-4.144-3.356-7.5-7.5-7.5h-120.23a7.497 7.497 0 00-7.5 7.5 7.5 7.5 0 007.5 7.5h120.23a7.5 7.5 0 007.5-7.5zm0 0"/></svg>