<svg xmlns="http://www.w3.org/2000/svg" viewBox="0 0 511.996 511.996"><path d="M286.359 252.517c12.72-9.356 20.994-24.42 20.994-41.386v-37.729c0-28.318-23.038-51.356-51.356-51.356l-.03.001-.03-.001c-28.328 0-51.374 23.047-51.374 51.375l.078 37.71c0 16.965 8.274 32.029 20.994 41.386-39.489 13.106-68.892 49.712-68.892 91.088v28.718a7.51 7.51 0 007.512 7.512h35.299c4.15 0 7.512-3.362 7.512-7.512s-3.362-7.512-7.512-7.512h-27.787v-21.206c0-21.087 9.014-41.263 25.38-56.813 9.394-8.925 20.685-15.651 32.748-19.762l7.633 14.831-11.594 50.327a7.51 7.51 0 002.249 7.228l22.743 20.815a7.49 7.49 0 005.071 1.971 7.486 7.486 0 005.071-1.971l22.742-20.815a7.512 7.512 0 002.249-7.228l-11.594-50.327 7.633-14.831c12.062 4.111 23.355 10.836 32.748 19.762 16.366 15.549 25.38 35.726 25.38 56.813v21.206H224.595c-4.15 0-7.512 3.362-7.512 7.512s3.362 7.512 7.512 7.512H347.74a7.51 7.51 0 007.512-7.512v-28.718c0-41.376-29.405-77.982-68.893-91.088zm-66.693-79.115c0-20.023 16.282-36.315 36.302-36.332 20.029.017 36.32 16.316 36.32 36.35v10.298c-14.553-4.167-20.606-19.263-20.884-19.975-1.043-2.749-3.58-4.663-6.515-4.858-2.935-.178-5.699 1.316-7.095 3.904-.461.825-10.79 18.717-38.128 21.599v-10.986zm36.331 171.105l-14.438-13.214 9.885-42.912h9.106l9.885 42.912-14.438 13.214zM244.9 263.353a82.859 82.859 0 017.45-.795c.839-.05 1.679-.076 2.519-.1.376.008.748.029 1.127.029h.001c.378 0 .75-.02 1.126-.029.84.024 1.68.05 2.519.1.259.015.518.033.777.051 2.232.155 4.457.41 6.675.745l-5.148 10.001h-11.897l-5.149-10.002zm12.57-15.928c-.457-.012-.912-.03-1.37-.036a3.503 3.503 0 00-.205 0c-.458.006-.913.023-1.37.036-19.352-.776-34.858-16.755-34.858-36.295v-11.649c22.099-1.89 35.983-11.806 43.659-19.64 5.37 7.591 14.653 16.808 29.005 19.303v11.986c-.002 19.541-15.509 35.519-34.861 36.295z"/><path d="M305.057 46.178l-44.906-44.03a7.512 7.512 0 00-12.771 5.363v13.174c-59.76 2.143-115.621 26.506-158.011 69.082-44.168 44.363-68.493 103.272-68.493 165.874 0 85.286 46.351 164.059 120.966 205.578a7.514 7.514 0 005.771.643 7.507 7.507 0 004.505-3.666l23.005-43.044a7.51 7.51 0 00-2.943-10.088c-53.966-30.339-87.491-87.594-87.491-149.422 0-48.576 20.751-95.056 56.929-127.523a7.512 7.512 0 00.574-10.608 7.51 7.51 0 00-10.608-.574c-39.351 35.313-61.919 85.869-61.919 138.705 0 64.795 33.843 124.967 88.81 158.786l-15.944 29.831C76.562 404.503 35.901 332.93 35.901 255.642c0-58.603 22.77-113.747 64.116-155.274 41.331-41.512 96.347-64.529 154.912-64.808a7.512 7.512 0 007.476-7.512v-2.649l26.664 26.144-26.664 26.144v-.848a7.513 7.513 0 00-7.513-7.513h-.046c-37.157.225-72.976 11.358-103.586 32.196a7.513 7.513 0 008.455 12.42c26.052-17.736 56.218-27.822 87.665-29.381v11.012a7.512 7.512 0 0012.771 5.363l44.906-44.031a7.512 7.512 0 000-10.727zm154.695 92.068c-19.902-34.467-48.446-63.55-82.546-84.105a7.512 7.512 0 00-10.502 2.892l-23.043 43.114a7.512 7.512 0 002.657 9.92c24.298 15.108 44.606 36.232 58.73 61.085 14.56 25.62 22.256 54.837 22.256 84.488 0 24.198-4.943 47.585-14.691 69.509a7.51 7.51 0 003.813 9.916 7.512 7.512 0 009.916-3.813c10.607-23.859 15.986-49.3 15.986-75.613 0-32.25-8.374-64.033-24.218-91.912-14.197-24.982-34.142-46.5-57.947-62.587l15.994-29.923c28.969 18.921 53.271 44.555 70.585 74.54 19.202 33.254 29.352 71.251 29.352 109.882 0 58.138-22.462 112.966-63.247 154.386-40.738 41.37-95.119 64.685-153.124 65.648a7.512 7.512 0 00-7.387 7.511v3.415l-26.664-26.145 26.664-26.145v.08c0 2.02.814 3.954 2.257 5.368a7.537 7.537 0 005.414 2.142c31.973-.676 63.358-9.607 90.766-25.824 26.626-15.755 49.122-38.102 65.057-64.62a7.514 7.514 0 00-2.569-10.309 7.514 7.514 0 00-10.309 2.569c-14.655 24.389-35.343 44.939-59.83 59.429-22.992 13.605-49.037 21.63-75.761 23.398v-10.12a7.511 7.511 0 00-12.771-5.363l-44.907 44.031a7.514 7.514 0 000 10.728l44.907 44.031a7.514 7.514 0 0012.771-5.364v-14.027c59.186-2.81 114.409-27.46 156.192-69.892 43.571-44.248 67.567-102.82 67.567-164.927-.003-41.263-10.849-81.859-31.368-117.393z"/></svg>