<svg xmlns="http://www.w3.org/2000/svg" viewBox="0 0 512 512"><path d="M184.698 208.046c-16.869 0-30.593 13.724-30.593 30.593s13.724 30.593 30.593 30.593 30.593-13.724 30.593-30.593-13.724-30.593-30.593-30.593zm0 46.185c-8.598 0-15.592-6.994-15.592-15.592s6.994-15.592 15.592-15.592c8.597 0 15.592 6.994 15.592 15.592 0 8.597-6.995 15.592-15.592 15.592zm79.759-46.185c-16.869 0-30.594 13.724-30.594 30.593s13.725 30.593 30.594 30.593 30.593-13.724 30.593-30.593-13.724-30.593-30.593-30.593zm0 46.185c-8.599 0-15.593-6.994-15.593-15.592s6.995-15.592 15.593-15.592 15.592 6.994 15.592 15.592-6.995 15.592-15.592 15.592zm79.759-46.185c-16.869 0-30.593 13.724-30.593 30.593s13.724 30.593 30.593 30.593 30.593-13.724 30.593-30.593-13.725-30.593-30.593-30.593zm0 46.185c-8.598 0-15.592-6.994-15.592-15.592s6.995-15.592 15.592-15.592c8.597 0 15.592 6.994 15.592 15.592s-6.995 15.592-15.592 15.592zm-159.518 28.44c-16.869 0-30.593 13.724-30.593 30.593s13.724 30.593 30.593 30.593 30.593-13.724 30.593-30.593-13.724-30.593-30.593-30.593zm0 46.185c-8.598 0-15.592-6.994-15.592-15.592s6.994-15.592 15.592-15.592c8.597 0 15.592 6.994 15.592 15.592s-6.995 15.592-15.592 15.592zm159.518-46.185c-16.869 0-30.593 13.724-30.593 30.593s13.724 30.593 30.593 30.593 30.593-13.724 30.593-30.593c-.001-16.869-13.725-30.593-30.593-30.593zm0 46.185c-8.598 0-15.592-6.994-15.592-15.592s6.995-15.592 15.592-15.592c8.597 0 15.592 6.994 15.592 15.592-.001 8.598-6.995 15.592-15.592 15.592zm-79.759-46.185c-16.869 0-30.594 13.724-30.594 30.593s13.725 30.593 30.594 30.593 30.593-13.724 30.593-30.593-13.724-30.593-30.593-30.593zm0 46.185c-8.599 0-15.593-6.994-15.593-15.592s6.995-15.592 15.593-15.592 15.592 6.994 15.592 15.592-6.995 15.592-15.592 15.592zm0 28.44c-16.869 0-30.593 13.725-30.593 30.594s13.724 30.593 30.593 30.593 30.593-13.724 30.593-30.593-13.724-30.594-30.593-30.594zm0 46.185c-8.599 0-15.593-6.994-15.593-15.592.001-8.597 6.995-15.593 15.593-15.593s15.592 6.994 15.592 15.593c0 8.598-6.995 15.592-15.592 15.592zm-79.759-46.185c-16.869 0-30.593 13.725-30.593 30.594s13.724 30.593 30.593 30.593 30.593-13.724 30.593-30.593-13.724-30.594-30.593-30.594zm0 46.185c-8.598 0-15.592-6.994-15.592-15.592s6.994-15.593 15.592-15.593c8.597 0 15.592 6.994 15.592 15.593-.001 8.598-6.995 15.592-15.592 15.592zm-69.15-164.841l11.026-11.026a7.5 7.5 0 00-10.608-10.606l-11.025 11.025-11.025-11.025a7.5 7.5 0 00-10.608 10.606l11.026 11.026-11.026 11.026a7.498 7.498 0 005.302 12.803 7.478 7.478 0 005.304-2.197l11.025-11.025 11.025 11.025a7.476 7.476 0 005.304 2.197 7.5 7.5 0 005.304-12.803l-11.024-11.026zm0 74.625l11.026-11.026a7.5 7.5 0 00-10.608-10.606l-11.025 11.025-11.025-11.025a7.5 7.5 0 00-10.608 10.606l11.026 11.026-11.026 11.026a7.498 7.498 0 005.302 12.803 7.478 7.478 0 005.304-2.197l11.025-11.025 11.025 11.025a7.476 7.476 0 005.304 2.197 7.5 7.5 0 005.304-12.803l-11.024-11.026zm11.025 85.648l-11.025-11.025 11.025-11.025a7.503 7.503 0 00-.002-10.608 7.503 7.503 0 00-10.608 0l-11.025 11.025-11.025-11.025a7.502 7.502 0 00-10.608 10.608l11.025 11.025-11.025 11.025a7.502 7.502 0 0010.608 10.608l11.025-11.025 11.025 11.025c1.465 1.464 3.385 2.196 5.304 2.196s3.839-.732 5.304-2.196a7.5 7.5 0 00.002-10.608z"/><path d="M511.569 421.227l-20.455-107.645a7.501 7.501 0 00-14.738 2.802l20.455 107.645c1.144 6.025-3.943 11.712-10.872 11.712h-110.99l71.99-71.989a7.59 7.59 0 002.196-5.304V173.133l20.569 108.248a7.501 7.501 0 0014.737-2.802L449.106 92.522c-.509-11.069-9.647-19.923-20.838-19.923h-65.73V48.482c0-4.143-3.357-7.5-7.5-7.5a7.499 7.499 0 00-7.5 7.5v24.116h-50.23V48.482c0-4.143-3.357-7.5-7.5-7.5s-7.5 3.357-7.5 7.5v24.116h-50.231V48.482c0-4.143-3.357-7.5-7.5-7.5s-7.5 3.357-7.5 7.5v24.116h-50.23V48.482c0-4.143-3.357-7.5-7.5-7.5s-7.5 3.357-7.5 7.5v24.116h-50.23V48.482c0-4.143-3.357-7.5-7.5-7.5a7.499 7.499 0 00-7.5 7.5v24.116h-65.73C9.37 72.599 0 81.968 0 93.486v356.646c0 11.517 9.37 20.886 20.887 20.886h186.19c4.143 0 7.5-3.357 7.5-7.5s-3.357-7.5-7.5-7.5H20.887a5.893 5.893 0 01-5.886-5.885V169.981h419.154v180.964h-84.186c-11.517 0-20.886 9.37-20.886 20.887v84.185h-87.005a7.499 7.499 0 00-7.5 7.5c0 4.143 3.357 7.5 7.5 7.5h94.505a7.54 7.54 0 005.304-2.196l18.08-18.08H485.96c16.29 0 28.523-14.182 25.609-29.514zM15.001 154.98V93.486a5.893 5.893 0 015.886-5.886h65.73v33.69c0 4.143 3.357 7.5 7.5 7.5s7.5-3.357 7.5-7.5V87.6h50.23v33.69c0 4.143 3.357 7.5 7.5 7.5s7.5-3.357 7.5-7.5V87.6h50.23v33.69c0 4.143 3.357 7.5 7.5 7.5s7.5-3.357 7.5-7.5V87.6h50.231v33.69c0 4.143 3.357 7.5 7.5 7.5s7.5-3.357 7.5-7.5V87.6h50.23v33.69c0 4.143 3.357 7.5 7.5 7.5s7.5-3.357 7.5-7.5V87.6h65.73a5.893 5.893 0 015.886 5.886v61.495H15.001zm329.082 290.43v-73.577a5.893 5.893 0 015.885-5.886h73.578l-79.463 79.463z"/></svg>