<svg xmlns="http://www.w3.org/2000/svg" viewBox="0 0 512 512"><path d="M307.307 169.955a8.017 8.017 0 008.017-8.017V8.017A8.017 8.017 0 00307.307 0H50.772a8.017 8.017 0 00-8.017 8.017v495.967a8.017 8.017 0 008.017 8.017h256.534a8.017 8.017 0 008.017-8.017V350.065a8.017 8.017 0 00-16.034 0v145.902h-240.5V16.033H299.29v145.905a8.017 8.017 0 008.017 8.017z"/><path d="M466.645 250.09l-102.614-94.063a8.016 8.016 0 00-13.434 5.91v26.188H247.449c-9.136 0-16.568 7.432-16.568 16.568v102.614c0 9.136 7.432 16.568 16.568 16.568h103.148v26.188a8.016 8.016 0 0013.434 5.91l102.614-94.063a8.016 8.016 0 000-11.82zM366.63 331.839v-15.981a8.017 8.017 0 00-8.017-8.017H247.449a.534.534 0 01-.534-.534V204.693c0-.295.239-.534.534-.534h111.165a8.017 8.017 0 008.017-8.017v-15.981L449.364 256l-82.734 75.839zM273.102 34.205h-17.1a8.017 8.017 0 000 16.034h9.083v111.699a8.017 8.017 0 0016.034 0V42.221a8.016 8.016 0 00-8.017-8.016zm-51.311 0H84.977a8.017 8.017 0 00-8.017 8.017v427.557a8.017 8.017 0 008.017 8.017h17.1a8.017 8.017 0 000-16.034h-9.083V50.238h128.797a8.017 8.017 0 000-16.033zm51.311 307.842a8.017 8.017 0 00-8.017 8.017v111.698H136.288a8.017 8.017 0 000 16.034h136.814a8.017 8.017 0 008.017-8.017V350.064a8.017 8.017 0 00-8.017-8.017z"/></svg>