<svg xmlns="http://www.w3.org/2000/svg" viewBox="0 0 512.002 512.002" width="512" height="512"><path d="M339.181 180.902a7.5 7.5 0 00-10.606 10.607l11.336 11.337c1.464 1.465 3.384 2.197 5.303 2.197s3.839-.732 5.303-2.197a7.5 7.5 0 000-10.607l-11.336-11.337zm143.702-84.269c-7.08-7.08-17.358-9.854-28.936-7.81-10.602 1.871-21.203 7.664-29.851 16.313-18.866 18.866-22.601 44.688-8.502 58.787 5.751 5.75 13.452 8.534 21.836 8.534 12.17 0 25.78-5.866 36.951-17.036 8.648-8.648 14.442-19.25 16.313-29.851 2.042-11.581-.731-21.857-7.811-28.937zm-6.962 26.329c-1.322 7.489-5.749 15.453-12.147 21.851-12.488 12.488-29.694 16.382-37.574 8.502-7.879-7.879-3.985-25.086 8.502-37.574 6.398-6.398 14.363-10.825 21.851-12.147a26.512 26.512 0 014.563-.411c3.638 0 7.947.844 11.159 4.056 4.749 4.748 4.322 11.889 3.646 15.723z"/><path d="M449.603 119.306l-11.336 11.336a7.5 7.5 0 000 10.606c1.464 1.465 3.384 2.197 5.303 2.197s3.839-.732 5.303-2.197l11.336-11.336a7.5 7.5 0 000-10.606 7.5 7.5 0 00-10.606 0zm-38.428 137.656v-25.008a7.5 7.5 0 00-7.5-7.5h-29.501c8.021-8.521 12.952-19.982 12.952-32.581 0-26.236-21.345-47.581-47.581-47.581s-47.581 21.344-47.581 47.581c0 12.598 4.931 24.06 12.952 32.581H106.025L382.748 97.792a7.5 7.5 0 003.698-9.941l-30.026-65.6c-1.725-3.769-4.814-6.64-8.699-8.085s-8.099-1.291-11.868.434l-53.396 24.44-27.087-29.017C248.675 2.851 239.229-.755 229.46.131c-9.771.886-18.413 6.131-23.709 14.39l-32.133 50.11-58.928-8.429c-9.712-1.389-19.33 1.723-26.386 8.54-7.056 6.817-10.5 16.321-9.447 26.075l4.259 39.466-53.395 24.44a15.414 15.414 0 00-8.085 8.698 15.413 15.413 0 00.434 11.867l30.026 65.6a7.5 7.5 0 006.82 4.379c.194 0 .388-.016.581-.031v251.249c0 8.556 6.96 15.516 15.516 15.516h320.645c8.556 0 15.516-6.96 15.516-15.516V336.879c6.031 2.585 12.105 3.897 17.833 3.896 8.432 0 16.115-2.82 21.81-8.515 14.098-14.099 10.364-39.921-8.502-58.787-9.074-9.074-20.271-14.926-31.14-16.511zm-104.21-65.089c0-17.965 14.616-32.581 32.581-32.581s32.581 14.615 32.581 32.581-14.616 32.581-32.581 32.581-32.581-14.616-32.581-32.581zM196.789 94.75l27.12 59.249-15.517 7.102-27.12-59.249 15.517-7.102zm145.307-66.511a.481.481 0 01.395-.015c.2.074.267.22.29.269l26.905 58.78-132.138 60.482-27.12-59.249 131.668-60.267zm-123.717-5.62a16.443 16.443 0 0112.437-7.548 16.44 16.44 0 0113.591 5.189l23.675 25.362-47.686 21.827 19.133-19.234a7.5 7.5 0 00-.028-10.606 7.499 7.499 0 00-10.607.028l-30.395 30.555-8.558-1.224 28.438-44.349zM93.771 89.208a16.441 16.441 0 014.956-13.678 16.44 16.44 0 0113.84-4.479l76.157 10.894-4.699 2.151-66.964 4.728a7.5 7.5 0 101.057 14.963l27.063-1.911-47.687 21.827-3.723-34.495zm-58.062 79.839c-.022-.048-.089-.194-.014-.394.074-.2.221-.267.269-.289l131.669-60.268 27.12 59.25-132.138 60.481-26.906-58.78zm38.788 327.439V239.454h137.307v257.548H75.014a.517.517 0 01-.517-.516zm321.678 0a.516.516 0 01-.516.516h-136.79v-216.95a7.5 7.5 0 00-15 0v216.95h-17.064V239.454h17.064v8.531a7.5 7.5 0 0015 0v-8.531h137.306v257.032zm44.037-174.832c-6.001 6-18.049 5.142-29.037-1.703v-16.727l6.364 6.364c1.464 1.464 3.384 2.197 5.303 2.197s3.839-.732 5.303-2.197a7.5 7.5 0 000-10.607l-11.337-11.336a7.47 7.47 0 00-5.634-2.181v-13.265c7.026 1.567 14.434 5.782 20.535 11.882 12.488 12.487 16.382 29.694 8.503 37.573z"/></svg>