<svg xmlns="http://www.w3.org/2000/svg" viewBox="0 0 511.995 511.995" width="512" height="512"><path d="M511.663 419.689l-11.179-67.072a24.192 24.192 0 00-23.938-20.278H426.31a24.219 24.219 0 001.513-13.258l-11.179-67.073a24.192 24.192 0 00-23.938-20.278h-50.237a24.219 24.219 0 001.513-13.258l-11.179-67.073a24.192 24.192 0 00-23.938-20.278H203.13a24.192 24.192 0 00-23.938 20.278l-11.179 67.072a24.217 24.217 0 001.513 13.258h-50.237a24.192 24.192 0 00-23.938 20.279l-.459 2.754a7.5 7.5 0 006.165 8.63 7.5 7.5 0 008.631-6.165l.459-2.754a9.24 9.24 0 019.142-7.745h105.736a9.24 9.24 0 019.142 7.745l11.179 67.072a9.251 9.251 0 01-2.071 7.515c-1.79 2.113-4.302 3.277-7.071 3.277H108.11c-2.77 0-5.281-1.164-7.072-3.277a9.253 9.253 0 01-2.07-7.515l5.13-30.782a7.5 7.5 0 00-14.796-2.466l-5.13 30.782a24.237 24.237 0 001.513 13.258H35.449a24.192 24.192 0 00-23.938 20.278L.332 419.689a24.225 24.225 0 005.421 19.676 24.224 24.224 0 0018.517 8.582h128.093a24.224 24.224 0 0018.517-8.582c.454-.536.875-1.093 1.277-1.66.402.567.823 1.124 1.277 1.66a24.224 24.224 0 0018.517 8.582h128.093a24.224 24.224 0 0018.517-8.582c.454-.536.875-1.093 1.277-1.66.402.567.823 1.124 1.277 1.66a24.224 24.224 0 0018.517 8.582h128.093a24.224 24.224 0 0018.517-8.582 24.225 24.225 0 005.421-19.676zM401.848 254.474l11.179 67.072a9.254 9.254 0 01-2.07 7.515c-1.791 2.113-4.302 3.277-7.072 3.277H275.792c-2.77 0-5.281-1.164-7.071-3.277a9.25 9.25 0 01-2.071-7.515l11.179-67.073a9.239 9.239 0 019.142-7.744h105.736a9.24 9.24 0 019.141 7.745zM191.951 231.73a9.251 9.251 0 01-7.072-3.278c-1.791-2.113-2.526-4.782-2.07-7.514l11.179-67.072a9.24 9.24 0 019.142-7.745h105.735a9.24 9.24 0 019.142 7.744l11.179 67.073c.456 2.732-.28 5.4-2.07 7.514a9.251 9.251 0 01-7.072 3.278H191.951zm72.606 15a24.411 24.411 0 00-1.524 5.278l-7.035 42.209-7.035-42.209a24.42 24.42 0 00-1.524-5.279h17.118zM159.435 429.669a9.25 9.25 0 01-7.072 3.277H24.27a9.25 9.25 0 01-7.072-3.277c-1.791-2.113-2.526-4.782-2.07-7.515l11.179-67.072a9.24 9.24 0 019.142-7.744h105.735a9.24 9.24 0 019.142 7.744l11.179 67.073c.456 2.732-.28 5.401-2.07 7.514zm12.722-34.843l-7.035-42.209a24.397 24.397 0 00-1.525-5.278h17.119a24.413 24.413 0 00-1.525 5.278l-7.034 42.209zm167.681.001l-.986-5.913a7.5 7.5 0 10-14.796 2.466l5.129 30.776c.456 2.732-.28 5.401-2.07 7.514a9.25 9.25 0 01-7.072 3.277H191.951a9.25 9.25 0 01-7.072-3.277c-1.791-2.113-2.526-4.782-2.07-7.515l11.179-67.072a9.24 9.24 0 019.142-7.744h105.735a9.24 9.24 0 019.142 7.744l.46 2.761a7.497 7.497 0 008.63 6.165 7.5 7.5 0 006.166-8.63l-.46-2.762a24.397 24.397 0 00-1.525-5.278h17.119a24.47 24.47 0 00-1.525 5.278l-7.034 42.21zm154.959 34.842a9.25 9.25 0 01-7.072 3.277H359.632a9.25 9.25 0 01-7.072-3.277c-1.791-2.113-2.526-4.782-2.07-7.515l11.179-67.072a9.24 9.24 0 019.142-7.744h105.735a9.24 9.24 0 019.142 7.744l11.179 67.073c.456 2.732-.28 5.401-2.07 7.514z"/><path d="M38.012 297.034h25.152a7.5 7.5 0 000-15H38.012a7.5 7.5 0 000 15zm403.319-7.5a7.5 7.5 0 007.5 7.5h25.152a7.5 7.5 0 000-15h-25.152a7.5 7.5 0 00-7.5 7.5zM255.998 104.201a7.5 7.5 0 007.5-7.5V71.548a7.5 7.5 0 00-7.5-7.5 7.5 7.5 0 00-7.5 7.5V96.7a7.501 7.501 0 007.5 7.501zM114.34 158.483c1.464 1.465 3.384 2.197 5.303 2.197s3.839-.732 5.303-2.197a7.5 7.5 0 000-10.606l-17.785-17.785a7.5 7.5 0 00-10.606 0 7.5 7.5 0 000 10.606l17.785 17.785zm278.012 2.197a7.474 7.474 0 005.303-2.197l17.785-17.785a7.5 7.5 0 000-10.606 7.5 7.5 0 00-10.606 0l-17.785 17.785a7.5 7.5 0 000 10.606 7.472 7.472 0 005.303 2.197zm-239.266-34.394a7.497 7.497 0 0010.246 2.745 7.5 7.5 0 002.745-10.246l-4.192-7.261a7.5 7.5 0 00-12.991 7.501l4.192 7.261zm263.415 70.581a7.497 7.497 0 0010.245 2.745l7.261-4.192a7.5 7.5 0 00-7.5-12.99l-7.261 4.192a7.5 7.5 0 00-2.745 10.245zm-112.535-86.352c.65.175 1.303.258 1.946.258a7.504 7.504 0 007.24-5.561l2.17-8.099a7.501 7.501 0 00-14.49-3.883l-2.17 8.098a7.501 7.501 0 005.304 9.187zM59.695 244.699l8.099 2.17a7.504 7.504 0 009.186-5.304 7.501 7.501 0 00-5.304-9.186l-8.099-2.17a7.501 7.501 0 00-3.882 14.49zM348.664 129.03a7.497 7.497 0 0010.246-2.745l4.192-7.261a7.501 7.501 0 00-12.991-7.501l-4.192 7.261a7.5 7.5 0 002.745 10.246zM77.988 195.42l7.261 4.192a7.499 7.499 0 0010.245-2.745 7.5 7.5 0 00-2.745-10.245l-7.261-4.192a7.5 7.5 0 00-7.5 12.99zm120.856-90.208a7.503 7.503 0 007.24 5.561 7.502 7.502 0 007.25-9.444l-2.17-8.098a7.5 7.5 0 00-14.49 3.883l2.17 8.098zm236.172 136.354a7.503 7.503 0 009.186 5.304l8.099-2.17a7.501 7.501 0 00-3.882-14.489l-8.099 2.17a7.499 7.499 0 00-5.304 9.185z"/></svg>