<svg xmlns="http://www.w3.org/2000/svg" width="72" height="52"><path data-name="Фигура 42" d="M63.52 23.41c-2.45-1.21-7.04-1.22-7.23-1.22a1.035 1.035 0 100 2.07c1.18 0 4.62.18 6.29 1a.984.984 0 00.47.11 1.071 1.071 0 00.95-.57 1.023 1.023 0 00-.48-1.39zm5.26 14.77l-4.35-1.23a.426.426 0 01-.32-.41v-1.43a8.532 8.532 0 001.01-.81 7.6 7.6 0 002.37-5.53V26.8l.42-.83a6.567 6.567 0 00.71-2.94v-5.35a1.05 1.05 0 00-1.06-1.04H57.41a6.65 6.65 0 00-6.69 6.59v.06a5.4 5.4 0 00.59 2.45l.54 1.06v1.69a8.049 8.049 0 003.38 6.55v1.5c0 .23 0 .33-.87.57l-2.12.6-6.15-2.2a1.05 1.05 0 00-.29-.8l-1.97-2.03v-3.41c.21-.16.42-.34.62-.52a12.1 12.1 0 003.9-8.85v-2.72a11.989 11.989 0 001.12-5.05V1.04A1.048 1.048 0 0048.42 0H32.63a10.009 10.009 0 00-10.08 9.91v2.22a11.85 11.85 0 001.13 5.05v2.34a12.565 12.565 0 004.51 9.67v3.49l-1.96 2.03a1.05 1.05 0 00-.29.8l-6.49 2.32a5.7 5.7 0 00-1.3.67l-1.02-.5a8.061 8.061 0 004.04-3.22 1 1 0 000-.92c-.76-1.5-.85-4.24-.93-6.45-.02-.73-.05-1.42-.09-2.04a8.948 8.948 0 00-17.89 0c-.05.62-.07 1.31-.1 2.05-.07 2.2-.16 4.94-.92 6.44a1 1 0 000 .92A7.94 7.94 0 005.28 38l-2.83 1.39A4.331 4.331 0 000 43.29v7.67a1.055 1.055 0 002.11 0v-7.67a2.257 2.257 0 011.29-2.04l3.52-1.74 1.23 1.15a4.489 4.489 0 006.11 0l1.23-1.15 1.15.57a5.313 5.313 0 00-.85 2.89v7.99a1.055 1.055 0 002.11 0v-7.99a3.411 3.411 0 012.27-3.19l6.84-2.45 2.85 4.21a2.2 2.2 0 001.6.94 1.7 1.7 0 00.22.01 2.162 2.162 0 001.54-.63l1.74-1.71v10.81a1.055 1.055 0 002.11 0V40.15l1.74 1.71a2.162 2.162 0 001.54.63 1.477 1.477 0 00.21-.01 2.164 2.164 0 001.6-.94l2.85-4.21 6.85 2.45a3.411 3.411 0 012.27 3.19v7.99a1.055 1.055 0 002.11 0v-7.99a5.416 5.416 0 00-1.56-3.79l.26-.07a7.014 7.014 0 00.98-.35l2.69 2.65v9.55a1.055 1.055 0 002.11 0v-9.55l2.68-2.63a2.2 2.2 0 00.45.17l4.35 1.22a2.307 2.307 0 011.69 2.21v8.58a1.055 1.055 0 002.11 0v-8.58a4.39 4.39 0 00-3.22-4.2zM6.76 36.35a7.564 7.564 0 01-3.38-2.14 11.351 11.351 0 00.6-2.49 7.725 7.725 0 002.78 3.38v1.25zm6.05 2.8a2.339 2.339 0 01-3.21 0l-.98-.91a2.2 2.2 0 00.25-1.02v-1.1a7.931 7.931 0 004.66 0v1.1a2.09 2.09 0 00.26 1.02zm-1.61-4.76a5.67 5.67 0 01-5.71-5.62 1.039 1.039 0 00-1.05-1.03 1.087 1.087 0 00-.18.01 2.437 2.437 0 00.01-.27c.03-.71.05-1.38.09-1.96a7.675 7.675 0 012.13-4.84 6.639 6.639 0 019.42 0 7.685 7.685 0 012.14 4.84c.04.58.06 1.25.08 1.96a1.21 1.21 0 01.01.19 9.51 9.51 0 00-5.21-3.75 13.735 13.735 0 00-4.01-.62 1.047 1.047 0 00-.73.32l-1.9 1.94a1.012 1.012 0 00.02 1.46A1.065 1.065 0 007.8 27l1.59-1.62c1.36.07 5.75.57 7.45 4.27a5.653 5.653 0 01-5.64 4.74zm4.44 1.96v-1.24a7.747 7.747 0 002.79-3.38 10.85 10.85 0 00.6 2.48 7.708 7.708 0 01-3.39 2.14zm10.15-16.83v-2.58a1.178 1.178 0 00-.1-.45 9.8 9.8 0 01-1.03-4.36V9.92a7.913 7.913 0 017.97-7.84h14.73v10.05a9.791 9.791 0 01-1.02 4.36 1.018 1.018 0 00-.1.45v2.96A9.889 9.889 0 0143 27.24a10.277 10.277 0 01-.81.67c0 .01-.01.01-.02.01a10.231 10.231 0 01-6.84 2.01 10.337 10.337 0 01-9.54-10.41zm5.94 20.87a.068.068 0 01-.06.03.071.071 0 01-.05-.04l-3.28-4.84 1.05-1.09 4.98 3.35zm4.28-4l-5.71-3.84v-1.94A11.926 11.926 0 0035.19 32c.28.02.56.03.83.03a12.553 12.553 0 005.71-1.37v1.89zm4.4 3.99a.108.108 0 01-.05.04.088.088 0 01-.06-.02l-2.64-2.6 4.97-3.35 1.06 1.09zm19.26-.87l-2.39-2.36a2.867 2.867 0 00.06-.61v-.44a7.7 7.7 0 002.09.36 1.927 1.927 0 00.24.01 7.922 7.922 0 002.33-.35v.42a2.4 2.4 0 00.07.6zm3.98-6.7a5.752 5.752 0 01-4.16 1.58 5.85 5.85 0 01-5.53-5.9v-1.94a1.072 1.072 0 00-.11-.46l-.66-1.28a3.5 3.5 0 01-.36-1.52v-.06a4.552 4.552 0 014.58-4.51h9.1v4.31a4.539 4.539 0 01-.48 2.01l-.54 1.05a1.072 1.072 0 00-.11.46v2.22a5.528 5.528 0 01-1.73 4.04zm2.79 10.46a1.042 1.042 0 00-1.06 1.03v6.66a1.055 1.055 0 002.11 0V44.3a1.039 1.039 0 00-1.05-1.03zM5.56 44.64a1.039 1.039 0 00-1.05 1.03v5.29a1.055 1.055 0 002.11 0v-5.29a1.042 1.042 0 00-1.06-1.03zm39.09-32.13c-3.99-3.92-12.33-3.17-15.74-2.67a2.142 2.142 0 00-1.85 2.12v2.39a1.055 1.055 0 002.11 0v-2.39a.086.086 0 01.06-.07 34.221 34.221 0 016.85-.33c3.29.22 5.67 1.03 7.08 2.42a1.075 1.075 0 001.49 0 1.015 1.015 0 000-1.47zM23.61 45.48a1.056 1.056 0 00-1.06 1.04v4.44a1.055 1.055 0 002.11 0v-4.44a1.048 1.048 0 00-1.05-1.04zm24.81 0a1.056 1.056 0 00-1.06 1.04v4.44a1.055 1.055 0 002.11 0v-4.44a1.048 1.048 0 00-1.05-1.04z" fill="#25bc98" fill-rule="evenodd"/></svg>