<svg xmlns="http://www.w3.org/2000/svg" viewBox="0 0 30 30"><path d="M26.3 13.4c-1-.5-2.9-.5-3-.5-.2 0-.4.2-.4.4s.2.4.4.4c.5 0 1.9.1 2.6.4h.2c.2 0 .3-.1.4-.2.1-.1 0-.4-.2-.5zm2.2 6.1l-1.8-.5c-.1 0-.1-.1-.1-.2v-.6c.1-.1.3-.2.4-.3.6-.6 1-1.4 1-2.3v-.8l.2-.3c.2-.4.3-.8.3-1.2v-2.2c0-.2-.2-.4-.4-.4h-4.2c-1.5 0-2.7 1.2-2.7 2.7 0 .3.1.7.2 1l.2.4v.7c0 1.1.5 2.1 1.4 2.7v.6c0 .1 0 .1-.4.2l-.9.2-2.5-.9c0-.1 0-.2-.1-.3l-.8-.8v-1.4c.1-.1.2-.1.3-.2 1-.9 1.6-2.2 1.6-3.6v-1.1c.3-.6.5-1.4.5-2.1V4.3c0-.2-.2-.4-.4-.4h-6.5c-2.3 0-4.1 1.8-4.1 4.1v.9c0 .7.2 1.4.5 2.1v1c0 1.5.7 3 1.8 4v1.4l-1 .6c-.1.1-.1.2-.1.3l-2.7.9c-.2.1-.4.2-.5.3l-.4-.2c.7-.2 1.3-.6 1.7-1.2v-.4c-.3-.6-.3-1.7-.4-2.6v-.8c-.1-2-1.7-3.6-3.8-3.6-1.9.1-3.5 1.6-3.6 3.6v.8c0 .9-.1 2-.4 2.6-.1.1-.1.3 0 .4.4.6 1 1.1 1.7 1.3l-1.2.6c-.6.3-1 .9-1 1.6v3.1c0 .2.2.4.4.4s.4-.2.4-.4v-3.1c0-.4.2-.7.5-.8l1.5-.8.5.5c.7.7 1.8.7 2.5 0l.5-.5.5.2c-.2.4-.3.8-.3 1.2v3.3c0 .2.2.4.4.4s.4-.2.4-.4v-3.3c0-.6.4-1.1.9-1.3l2.8-1 1.2 1.7c.2.2.4.4.7.4h.1c.2 0 .5-.1.6-.3l.7-.7v4.4c0 .2.2.4.4.4s.4-.2.4-.4v-4.4l.7.7c.2.2.4.3.6.3h.1c.3 0 .5-.2.7-.4l1.2-1.7 2.8 1c.6.2.9.7.9 1.3v3.3c0 .2.2.4.4.4s.4-.2.4-.4v-3.3c0-.6-.2-1.1-.6-1.6h.1c.1 0 .3-.1.4-.1l1.1 1.1v3.9c0 .2.2.4.4.4s.4-.2.4-.4v-3.9l1.1-1.1c.1 0 .1.1.2.1l1.8.5c.4.1.7.5.7.9v3.5c0 .2.2.4.4.4s.4-.2.4-.4v-3.5c.2-.8-.4-1.5-1.1-1.7zm-25.4-.8c-.5-.2-1-.5-1.4-.9.1-.3.2-.7.2-1 .2.6.6 1 1.1 1.4v.5zm2.4 1.2c-.4.3-.9.3-1.3 0l-.4-.4c.1-.1.1-.3.1-.4v-.5c.6.2 1.3.2 1.9 0v.5c0 .1 0 .3.1.4l-.4.4zm-.6-2c-1.3 0-2.3-1-2.3-2.3 0-.2-.2-.4-.4-.4h-.1v-.9c0-.7.4-1.4.9-2 1.1-1.1 2.8-1.1 3.8 0 .5.5.8 1.2.9 2v.9c-.5-.7-1.3-1.3-2.1-1.5-.5-.2-1.1-.3-1.6-.3-.1 0-.2 0-.3.1l-.8.8c-.2.2-.2.4 0 .6.2.2.4.2.6 0l.7-.7c.6 0 2.4.2 3.1 1.7-.3 1.2-1.3 2-2.4 2zm1.8.8v-.5c.5-.3.9-.8 1.1-1.4 0 .3.1.7.2 1-.3.4-.8.8-1.3.9zm4.2-6.9v-1.3c-.3-.6-.4-1.2-.4-1.8v-.8c0-1.8 1.5-3.2 3.3-3.2h6v4.1c0 .6-.1 1.2-.4 1.8V12c0 1.1-.5 2.2-1.3 3l-.3.3c-.8.6-1.8.9-2.8.8-2.5-.2-4.2-2-4.1-4.3zm2.4 8.6s-.1 0 0 0l-1.4-2 .4-.4 2 1.4-1 1zm1.7-1.7l-2.3-1.6v-.8c.6.3 1.3.5 2 .6h.3c.8 0 1.6-.2 2.3-.6v.8L15 18.7zm1.8 1.7l-1.1-1.1 2-1.4.4.4-1.3 2.1zm7.9-.4l-1-1v-.4c.3.1.6.1.9.1h.1c.3 0 .6 0 1-.1v.4l-1 1zm1.7-2.7c-.5.4-1.1.7-1.7.6-1.3-.1-2.3-1.1-2.3-2.4v-1l-.3-.5c-.1-.2-.1-.4-.1-.6 0-1 .8-1.9 1.9-1.8h3.7v1.8c0 .3-.1.6-.2.8l-.2.4v1.1c-.1.5-.4 1.1-.8 1.6zm1.1 4.2c-.2 0-.4.2-.4.4v2.7c0 .2.2.4.4.4s.4-.2.4-.4V22c0-.3-.2-.5-.4-.5zm-24.9.6c-.2 0-.4.2-.4.4v2.2c0 .2.2.4.4.4s.4-.2.4-.4v-2.2c0-.2-.2-.4-.4-.4zM18.6 9c-1.6-1.6-5-1.3-6.4-1.1-.4.1-.8.4-.8.9v1c0 .2.2.4.4.4s.4-.2.4-.4v-1c.9-.1 1.9-.2 2.8-.1 1.3.1 2.3.4 2.9 1 .2.2.4.2.6 0 .2-.3.2-.6.1-.7zM10 22.5c-.2 0-.4.2-.4.4v1.8c0 .2.2.4.4.4s.4-.2.4-.4v-1.8c0-.3-.2-.4-.4-.4zm10.1 0c-.2 0-.4.2-.4.4v1.8c0 .2.2.4.4.4s.4-.2.4-.4v-1.8c0-.3-.1-.4-.4-.4z"/></svg>