<svg xmlns="http://www.w3.org/2000/svg" width="64.844" height="65"><path data-name="Фигура 46" d="M45.4 19.49a26.565 26.565 0 00-37.627 0 .981.981 0 000 1.38.967.967 0 001.371 0 24.7 24.7 0 110 34.97 24.784 24.784 0 01-3.085-31.21.97.97 0 10-1.611-1.08 26.728 26.728 0 003.325 33.66A26.64 26.64 0 0045.4 19.49zm-3.556 3.57a21.615 21.615 0 100 30.59 21.553 21.553 0 00.002-30.59zm-1.37 29.21a19.68 19.68 0 110-27.84 19.622 19.622 0 01.002 27.84zm16.6-44.48a26.588 26.588 0 00-37.626 0c-.63.63-1.233 1.3-1.792 1.98a.976.976 0 00.136 1.37.964.964 0 001.364-.14c.518-.63 1.078-1.25 1.662-1.84a24.7 24.7 0 1133.05 36.64.968.968 0 00.614 1.72.95.95 0 00.613-.22 25.169 25.169 0 001.979-1.8 26.737 26.737 0 00.003-37.71zM59 20.67a.968.968 0 10-1.862.53 19.739 19.739 0 01-2.312 16.03.972.972 0 00.3 1.34.921.921 0 00.521.16.968.968 0 00.817-.45A21.684 21.684 0 0059 20.67zm-1.557-3.94a21.547 21.547 0 00-30.781-8.32.968.968 0 101.043 1.63 19.665 19.665 0 0128.016 7.58.962.962 0 00.862.53 1.01 1.01 0 00.443-.11.972.972 0 00.421-1.31zM25.5 29.97h2.125v20.12H25.5V29.97zm1.075-2.04l1.493 1.5-7.851 7.87-1.493-1.5zm.461-.06l-1.515 1.51 7.962 7.98 1.514-1.51z" fill="#ffe742" fill-rule="evenodd"/></svg>