<svg height="512pt" viewBox="-8 0 512 512" width="512pt" xmlns="http://www.w3.org/2000/svg"><path d="M354.168 459.184c1.984 0 4.027-.102 6.125-.305 11.383-1.113 29.082-6.164 40.352-11.527 30.156-14.72 32.832-32.977 32.582-40.141-.336-9.66-5.899-17.824-14.52-21.313-9.445-3.816-20.273-1.152-29.016 7.137-7.203 5.774-27.996 11.934-38.66 11.41-12.386-.597-22.992 4.602-28.386 13.938-4.84 8.37-4.614 18.601.593 26.691 5.867 9.117 16.95 14.11 30.93 14.11zm-18.438-33.239c2.383-4.125 7.196-6.433 13.317-6.433.41 0 .824.008 1.246.031h.008c13.226.633 38.527-6.168 49.215-15.02.148-.125.289-.25.425-.382 4.426-4.262 9.2-5.809 13.098-4.23 3.055 1.234 4.957 4.16 5.082 7.823.117 3.29-1.285 14.895-24.039 26-9.535 4.54-25.684 9.164-35.258 10.102-11.008 1.07-19.347-1.461-22.875-6.945-2.129-3.305-2.21-7.5-.219-10.946zm0 0"/><path d="M484.39 263.559c10.137-19.114 14.286-39.864 11.989-60.008-4.059-35.594-27.598-66.285-59.973-78.184-19.101-7.023-39.133-6.683-58.129.508 6-19.734 6.285-39.645.711-58.48-6.652-22.485-21.183-41.657-40.906-53.98C320 2.112 299.012-2.259 279 1.104c-22.254 3.743-42.473 16.727-58.469 37.555l-.199.27c-6.906 9.883-15.55 19.11-25.695 27.422a7.562 7.562 0 00-1.055 10.636 7.562 7.562 0 0010.637 1.055c11.164-9.152 20.719-19.352 28.398-30.309 31.625-41.058 72.25-37.254 97.453-21.507 30.059 18.785 51.336 61.152 27.887 110.257-4.95 3.344-9.77 7.184-14.414 11.532-.082.078-.16.152-.238.234-30.145 30.84-77.922 48.293-142.004 51.863-41.52 2.305-75.559 20.836-93.39 50.844-6.688 11.254-10.77 23.555-12.212 36.066-50.777-3.488-76.86-36.433-80.191-68.812-3.684-35.8 18.808-77.754 77.363-90.77 30.399-6.757 57.223-16.328 79.727-28.441a7.554 7.554 0 003.07-10.234 7.552 7.552 0 00-10.234-3.075c-21.282 11.457-46.797 20.54-75.844 26.993-30.149 6.703-54.492 21.242-70.395 42.039C4.746 173.613-1.902 196.71.47 219.762c4.011 38.957 34.855 78.613 94.777 82.402a88.3 88.3 0 006.04 27.633 89.425 89.425 0 00-3.263 3.062c-23.527 23.352-31.968 57.368-22.027 88.766 6.32 19.953 19.797 37.969 38.977 52.098 21.382 15.757 49.39 26.664 83.242 32.414 23.14 3.933 52.18 5.863 81.379 5.863 35.07 0 70.367-2.785 95.918-8.219 28.82-6.129 52.547-17.129 70.527-32.687 16.063-13.903 27.219-31.43 32.266-50.7 8.918-34.062-1.766-70.554-27.223-92.964a81.25 81.25 0 00-15.75-10.883c22.121-15.512 38.617-33.313 49.059-52.988zm-63.222 44.347a339.177 339.177 0 01-3.082 1.973c-18.535-4.781-39.211-3.102-60.11 5.324-.101.043-.206.086-.308.133-14.375 6.55-30.629 10.543-48.316 11.867-4.16.309-7.282 3.938-6.973 8.098a7.55 7.55 0 008.101 6.972c19.407-1.449 37.34-5.863 53.301-13.113 18.684-7.5 36.574-8.847 52.383-4.222.57.253 1.172.433 1.781.542 8.395 2.723 16.18 7.157 23.149 13.293 21.207 18.672 30.074 49.207 22.586 77.793-5.489 20.965-24.653 58.25-91.313 72.434-45.27 9.625-122.254 10.629-171.62 2.234-58.333-9.906-98.552-36.941-110.34-74.171-8.227-25.977-1.227-54.13 18.265-73.477a78.443 78.443 0 016.074-5.414c.324-.223.629-.461.906-.727 22.922-17.843 54.86-21.773 89.168-10.625 23.461 7.621 45.922 12.575 66.77 14.727a7.56 7.56 0 008.297-6.738 7.563 7.563 0 00-6.742-8.297c-19.793-2.043-41.207-6.774-63.653-14.067-22.52-7.316-44.094-8.898-64.129-4.703-11.363 2.383-21.988 6.64-31.453 12.555-6.68-20.25-4.25-42.695 6.992-61.613 15.442-25.989 44.293-41.426 81.239-43.473 67.89-3.79 118.98-22.719 151.855-56.27 4.371-4.086 8.871-7.644 13.465-10.683a7.335 7.335 0 001.004-.649c20.008-12.847 41.777-15.757 62.726-8.054 27.059 9.945 46.754 35.738 50.168 65.707 2.508 21.992-1.984 64.574-60.191 102.644zm0 0"/><path d="M429.168 195.914c-10.461-1.035-20.629 4.274-26.543 13.84-.059.098-.117.195-.172.293-4.539 8.14-22.281 21.887-32.73 25.355-11.95 3.965-20.09 12.79-21.774 23.602-1.511 9.691 2.446 19.281 10.332 25.02 4.961 3.617 10.985 5.417 17.645 5.417 6.98 0 14.648-1.98 22.508-5.933 11.543-5.809 26.367-17.66 34.027-25.754 21.492-22.649 19.945-38.793 17.113-46.399-3.203-8.597-11.023-14.515-20.406-15.44zm-7.68 51.445c-7.468 7.891-21.136 18.262-29.847 22.649-10.125 5.094-19.043 5.75-24.461 1.8-3.285-2.39-4.934-6.406-4.297-10.472.805-5.184 5.035-9.406 11.597-11.586 12.727-4.223 34.094-19.855 41.079-32.168 2.898-4.613 7.425-7.086 12.125-6.625 3.648.36 6.535 2.48 7.722 5.676 2.692 7.219-2.508 18.703-13.918 30.726zM269.59 172.57c8.418 0 17.637-3.37 26.64-9.933 10.426-7.63 23.036-21.621 29.2-30.735 17.425-25.691 13.297-41.277 9.285-48.285-4.54-7.922-13.164-12.469-22.54-11.851-10.437.683-19.558 7.535-23.804 17.882-.043.098-.078.2-.117.301-3.156 8.735-18.316 25.055-27.969 30.106a.03.03 0 01-.015.007c-11.086 5.836-17.641 15.82-17.536 26.711.09 9.758 5.532 18.524 14.196 22.88 3.89 1.956 8.16 2.917 12.66 2.917zm-2.29-39.125c11.782-6.168 30.22-24.945 35.106-38.183 2.082-4.965 6.094-8.11 10.758-8.414 3.61-.23 6.766 1.367 8.434 4.28 3.793 6.622.547 18.688-8.68 32.298-6.004 8.875-17.734 21.246-25.602 27.004-9.07 6.613-17.671 8.699-23.597 5.718-3.582-1.8-5.832-5.445-5.871-9.515-.047-5.192 3.398-9.996 9.453-13.188zm0 0"/></svg>