<svg xmlns="http://www.w3.org/2000/svg" width="16" height="16"><path data-name="Фигура 39" d="M14.49 1.516a5.18 5.18 0 00-8.84 3.659 5.013 5.013 0 00.42 2.033l-5.71 5.7a.684.684 0 00-.18.385L0 15.321a.649.649 0 00.18.5.634.634 0 00.5.18l2.03-.18a.615.615 0 00.38-.18l.62-.614a.1.1 0 01-.01-.053l-.1-1.468a.289.289 0 01.08-.234.322.322 0 01.24-.087l1.47.1.05.009.48-.483c0-.016-.01-.034-.01-.053l-.1-1.468a.333.333 0 01.09-.234.3.3 0 01.23-.088l1.47.1a.2.2 0 01.05.008l1.14-1.139a5.214 5.214 0 002.04.414 5.174 5.174 0 003.66-8.835zm-2.16 5.166a2.1 2.1 0 01-1.5.624 2.131 2.131 0 110-4.261 2.1 2.1 0 011.5.624 2.135 2.135 0 010 3.012z" fill="#fff" fill-rule="evenodd"/></svg>