<svg height="512pt" viewBox="-16 0 512 512" width="512pt" xmlns="http://www.w3.org/2000/svg"><path d="M452.336 0h-424.7C12.399 0 0 12.395 0 27.625v456.723C0 499.594 12.398 512 27.637 512h424.699C467.59 512 480 499.594 480 484.348V27.625C480 12.395 467.59 0 452.336 0zm0 497h-424.7C20.669 497 15 491.324 15 484.348V87.71h120.738a7.5 7.5 0 007.5-7.5c0-4.145-3.355-7.5-7.5-7.5H15V27.625C15 20.665 20.668 15 27.637 15h424.699C459.32 15 465 20.664 465 27.625v45.086H170.902a7.5 7.5 0 100 15H465v396.637c0 6.976-5.68 12.652-12.664 12.652zm0 0"/><path d="M176.285 276.094c.246.261.516.511.8.734a95.662 95.662 0 008.704 7.082c16.168 11.582 35.188 17.703 55.004 17.703 23.172 0 45.355-8.562 62.434-23.55a7.33 7.33 0 001.12-.989 94.241 94.241 0 0013.255-14.844c14.707-20.496 20.55-45.488 16.453-70.375-4.094-24.886-17.64-46.69-38.145-61.39-16.152-11.582-35.168-17.703-54.988-17.703-30.406 0-59.125 14.722-76.82 39.383-14.707 20.492-20.551 45.484-16.454 70.375 3.422 20.8 13.465 39.43 28.637 53.574zm18.242-4.375a81.65 81.65 0 01-4.386-3.41c6.52-20.848 28.523-26.809 39.62-28.496a40.703 40.703 0 0010.387 1.421h.309c3.48 0 7.012-.5 10.473-1.457 20.164 3.04 34.562 13.856 39.492 29.457-13.938 11.102-31.422 17.38-49.629 17.38-16.664 0-32.66-5.153-46.266-14.895zm33.485-77.399c4.468 3.23 10.449 4.535 19.035 4.535h18.644v4.973c0 6.676-4 13.328-10.687 17.793-4.54 3.02-9.777 4.656-14.75 4.613-2.54-.011-5.047-.433-7.445-1.183-.137-.047-.274-.098-.414-.137-9.817-3.234-17.66-11.98-17.66-21.086v-4.117c5.324-.277 9.863-2.152 13.277-5.39zm-13.242-9.632c.773-14.75 13.328-22.458 25.73-22.458 7.02 0 13.336 2.493 17.79 7.016 3.597 3.649 5.929 8.621 6.897 14.61h-18.14c-10.465 0-11.207-1.68-13.192-6.165a7.505 7.505 0 00-7.675-4.421 7.492 7.492 0 00-6.535 5.98c-.708 3.527-2.04 5.086-4.875 5.438zm-38.485-23.797c14.89-20.743 39.05-33.13 64.637-33.13 16.668 0 32.66 5.153 46.25 14.895 17.242 12.364 28.637 30.703 32.082 51.637 3.445 20.934-1.473 41.953-13.84 59.191a81.71 81.71 0 01-3.402 4.395c-6.235-12.965-17.676-23.02-32.598-28.715 7.156-6.973 11.277-16.031 11.277-25.336v-12.503c.172-13.376-3.875-24.645-11.714-32.606-7.297-7.407-17.41-11.485-28.477-11.485-19.766 0-40.77 13.633-40.77 38.907v17.687c0 9.535 4.383 18.52 11.32 25.3-14.94 5.49-26.187 15.048-32.359 27.556-8.382-10.489-14.003-22.989-16.246-36.602-3.441-20.934 1.473-41.953 13.84-59.191zm-117-126.789h-.226a7.5 7.5 0 00-7.5 7.5 7.5 7.5 0 007.5 7.5h.226c4.14 0 7.5-3.36 7.5-7.5 0-4.141-3.36-7.5-7.5-7.5zm36.242 0h-.199c-4.14 0-7.5 3.359-7.5 7.5 0 4.14 3.36 7.5 7.5 7.5h.2c4.14 0 7.5-3.36 7.5-7.5 0-4.141-3.36-7.5-7.5-7.5zm36.27.168h-.227a7.5 7.5 0 00-7.5 7.5c0 4.144 3.356 7.5 7.5 7.5h.227a7.5 7.5 0 100-15zm66.871 17.07H339.84a7.5 7.5 0 100-15H198.668a7.5 7.5 0 00-7.5 7.5c0 4.144 3.355 7.5 7.5 7.5zm152.91 278.273H125.645c-9.72 0-17.625 7.89-17.625 17.59v17.89c0 9.7 7.906 17.59 17.625 17.59h225.933c9.719 0 17.625-7.89 17.625-17.59v-17.89c0-9.7-7.906-17.59-17.625-17.59zm2.625 35.48c0 1.403-1.203 2.59-2.625 2.59H125.645c-1.422 0-2.625-1.187-2.625-2.59v-17.89c0-1.402 1.203-2.59 2.625-2.59h225.933c1.422 0 2.625 1.188 2.625 2.59zm-6.058 40.403H122.184c-9.704 0-17.598 7.895-17.598 17.594v17.887c0 9.699 7.894 17.59 17.598 17.59h225.964c9.715 0 17.622-7.891 17.622-17.59V423.09c0-9.7-7.907-17.594-17.625-17.594zm2.625 35.48c0 1.407-1.2 2.59-2.622 2.59H122.184c-1.407 0-2.598-1.183-2.598-2.59V423.09c0-1.406 1.191-2.594 2.598-2.594h225.964c1.422 0 2.622 1.188 2.622 2.594zm0 0"/></svg>