<svg height="512pt" viewBox="0 -103 512 512" width="512pt" xmlns="http://www.w3.org/2000/svg"><path d="M432 145h-31.45C420.786 130.469 434 106.758 434 80c0-44.113-35.887-80-80-80H158c-44.113 0-80 35.887-80 80 0 26.758 13.215 50.469 33.45 65H80c-44.113 0-80 35.887-80 80s35.887 80 80 80h352c44.113 0 80-35.887 80-80s-35.887-80-80-80zm0 15c23.992 0 44.977 13.078 56.238 32.473H348.063c-5.829-13.036-15.036-24.23-26.512-32.473zM275 290c-35.84 0-65-29.16-65-65s29.16-65 65-65 65 29.16 65 65-29.16 65-65 65zm-116.957-82.527h38.918A79.762 79.762 0 00195 225c0 6.004.688 11.852 1.945 17.48l-38.902.04A79.927 79.927 0 00160 225c0-6.023-.691-11.883-1.957-17.527zM204.551 145c11.476-8.242 20.683-19.438 26.512-32.473l179.207-.054C399.02 131.898 378.016 145 354 145zM354 15c23.992 0 44.977 13.078 56.238 32.473h-33.25a7.5 7.5 0 100 15h39.59A64.73 64.73 0 01419 80a64.86 64.86 0 01-2.406 17.473l-180.555.054A79.789 79.789 0 00238 80c0-6.023-.691-11.887-1.96-17.531H342a7.5 7.5 0 100-15H231.062c-5.828-13.032-15.034-24.227-26.51-32.469zM93 80c0-35.84 29.16-65 65-65s65 29.16 65 65-29.16 65-65 65-65-29.16-65-65zm65 80h70.45c-11.477 8.242-20.684 19.438-26.512 32.473h-48.88c-5.824-13.036-15.03-24.23-26.507-32.473zM15 225c0-35.84 29.16-65 65-65s65 29.16 65 65-29.16 65-65 65-65-29.16-65-65zm111.55 65c11.477-8.242 20.684-19.438 26.513-32.473l48.851-.05c5.824 13.054 15.043 24.27 26.535 32.523zM432 290H321.55c11.477-8.242 20.684-19.438 26.513-32.473l27.042-.007a7.5 7.5 0 007.5-7.504 7.498 7.498 0 00-7.5-7.496h-.003l-22.059.007A79.971 79.971 0 00355 225a80 80 0 00-1.957-17.527h141.535A64.752 64.752 0 01497 225a64.76 64.76 0 01-2.414 17.508l-84.457.012c-4.14 0-7.5 3.359-7.496 7.5 0 4.144 3.355 7.5 7.5 7.5l78.12-.012C476.994 276.91 456.004 290 432 290zm0 0"/><path d="M275 189.168c-19.758 0-35.832 16.074-35.832 35.832s16.074 35.832 35.832 35.832 35.832-16.074 35.832-35.832-16.074-35.832-35.832-35.832zm0 56.664c-11.488 0-20.832-9.344-20.832-20.832s9.344-20.832 20.832-20.832 20.832 9.344 20.832 20.832-9.344 20.832-20.832 20.832zM115.832 225c0-19.758-16.074-35.832-35.832-35.832S44.168 205.242 44.168 225 60.242 260.832 80 260.832s35.832-16.074 35.832-35.832zm-56.664 0c0-11.488 9.344-20.832 20.832-20.832s20.832 9.344 20.832 20.832S91.488 245.832 80 245.832 59.168 236.488 59.168 225zM158 44.168c-19.758 0-35.832 16.074-35.832 35.832s16.074 35.832 35.832 35.832S193.832 99.758 193.832 80 177.758 44.168 158 44.168zm0 56.664c-11.488 0-20.832-9.344-20.832-20.832S146.512 59.168 158 59.168 178.832 68.512 178.832 80s-9.344 20.832-20.832 20.832zm0 0"/></svg>