<svg xmlns="http://www.w3.org/2000/svg" width="64.845" height="65"><path data-name="Фигура 46" d="M45.405 19.49a26.567 26.567 0 00-37.629 0 .981.981 0 000 1.38.966.966 0 001.37 0 24.7 24.7 0 110 34.97 24.787 24.787 0 01-3.085-31.21.97.97 0 10-1.611-1.08 26.726 26.726 0 003.326 33.66 26.64 26.64 0 0037.629-37.72zm-3.56 3.57a21.615 21.615 0 100 30.59 21.552 21.552 0 000-30.59zm-1.37 29.21a19.68 19.68 0 110-27.84 19.62 19.62 0 010 27.84zm16.6-44.48a26.581 26.581 0 00-37.62 0c-.633.63-1.236 1.3-1.8 1.98a.976.976 0 00.136 1.37.958.958 0 001.359-.14c.52-.63 1.08-1.25 1.67-1.84A24.7 24.7 0 0155.7 44.13a23.97 23.97 0 01-1.83 1.67.966.966 0 00.61 1.72.935.935 0 00.61-.22 23.993 23.993 0 001.98-1.8 26.726 26.726 0 00.005-37.71zm1.93 12.88a.967.967 0 10-1.86.53 19.784 19.784 0 01-2.31 16.03.97.97 0 00.29 1.34.909.909 0 00.52.16.98.98 0 00.82-.45 21.7 21.7 0 002.54-17.61zm-1.56-3.94a21.547 21.547 0 00-30.78-8.32.966.966 0 00-.29 1.34.956.956 0 001.33.29 19.657 19.657 0 0128.02 7.58.958.958 0 00.86.53 1.064 1.064 0 00.45-.11.97.97 0 00.41-1.31zm-31.66 11.11h2.03v20.13h-2.03V27.84zM26.815 50l1.45-1.5-7.63-7.87-1.45 1.5zm.45.07l-1.47-1.52 7.73-7.98 1.47 1.52z" fill="#ffe742" fill-rule="evenodd"/></svg>