<svg xmlns="http://www.w3.org/2000/svg" viewBox="0 0 512 512"><path d="M485.781 44.653H275.47V19.47C275.47 8.734 266.737 0 256 0c-10.737 0-19.47 8.734-19.47 19.47v25.183H26.219c-10.753 0-19.501 8.748-19.501 19.501v28.167c0 10.753 8.748 19.501 19.501 19.501h4.438v287.571c0 11.049 8.987 20.036 20.036 20.036h90.457l-18.616 67.948c-2.843 10.38 3.253 21.081 13.634 23.923 10.353 2.836 21.084-3.282 23.921-13.634l8.755-31.955h174.312l8.755 31.955v.001c2.842 10.375 13.54 16.479 23.921 13.633 10.379-2.841 16.478-13.543 13.634-23.922l-18.616-67.949h90.457c11.049 0 20.036-8.987 20.036-20.036V275.627c0-4.143-3.357-7.5-7.5-7.5a7.499 7.499 0 00-7.5 7.5v123.768a5.041 5.041 0 01-5.035 5.035H271.184a7.499 7.499 0 00-7.5 7.5c0 4.143 3.357 7.5 7.5 7.5h59.293l8.57 31.282H172.954l8.57-31.282h54.657c4.143 0 7.5-3.357 7.5-7.5s-3.357-7.5-7.5-7.5H50.693a5.041 5.041 0 01-5.035-5.035V111.823h420.684v128.802c0 4.143 3.357 7.5 7.5 7.5s7.5-3.357 7.5-7.5V111.823h4.438c10.753 0 19.501-8.748 19.501-19.501V64.154c.001-10.753-8.747-19.501-19.5-19.501zM355.296 419.429l19.702 71.914a4.463 4.463 0 01-3.13 5.49 4.464 4.464 0 01-5.489-3.129l-20.35-74.275h9.267zm-189.325.002l-20.35 74.273a4.475 4.475 0 01-5.49 3.13 4.465 4.465 0 01-3.129-5.491l19.702-71.912h9.267zM251.532 19.47a4.474 4.474 0 014.469-4.469 4.474 4.474 0 014.469 4.469v25.183h-8.938V19.47zm238.749 72.852c0 2.439-2.061 4.5-4.5 4.5H26.22c-2.439 0-4.5-2.061-4.5-4.5V64.154c0-2.439 2.061-4.5 4.5-4.5h459.561c2.439 0 4.5 2.061 4.5 4.5v28.168z"/><path d="M416.462 354.362h-11.737V147.758c0-6.176-5.024-11.201-11.201-11.201h-33.148c-6.176 0-11.201 5.024-11.201 11.201V182.9h-29.349c-6.176 0-11.201 5.024-11.201 11.2v29.608h-29.349c-6.176 0-11.201 5.024-11.201 11.201v27.544H238.73c-6.176 0-11.201 5.024-11.201 11.2v80.71h-11.738a7.499 7.499 0 00-7.5 7.5c0 4.143 3.357 7.5 7.5 7.5h200.671c4.143 0 7.5-3.357 7.5-7.5a7.498 7.498 0 00-7.5-7.501zm-148.383 0H242.53v-76.909h25.548v76.909zm40.549 0H283.08V238.708h25.548v115.654zm40.548 0h-25.548V197.9h25.548v156.462zm40.549 0h-25.548V151.558h25.548v202.804zM162.82 152.933h-39.513c-4.143 0-7.5 3.358-7.5 7.5s3.357 7.5 7.5 7.5h39.513c4.143 0 7.5-3.358 7.5-7.5s-3.357-7.5-7.5-7.5zm19.756 37.153H103.55a7.499 7.499 0 00-7.5 7.5c0 4.143 3.357 7.5 7.5 7.5h79.026c4.143 0 7.5-3.357 7.5-7.5s-3.357-7.5-7.5-7.5zm0 37.152H103.55a7.499 7.499 0 00-7.5 7.5c0 4.143 3.357 7.5 7.5 7.5h79.026c4.143 0 7.5-3.357 7.5-7.5s-3.357-7.5-7.5-7.5zm0 37.153H103.55a7.499 7.499 0 00-7.5 7.5c0 4.143 3.357 7.5 7.5 7.5h79.026c4.143 0 7.5-3.357 7.5-7.5s-3.357-7.5-7.5-7.5z"/></svg>