<svg xmlns="http://www.w3.org/2000/svg" viewBox="0 0 511.995 511.995" width="512" height="512"><path d="M493.718 380.757a7.5 7.5 0 00-7.5 7.5v55.566c0 7.589-6.174 13.763-13.763 13.763H57.394c-7.589 0-13.763-6.174-13.763-13.763V388.19h32.841v6.588c0 16.523 13.443 29.967 29.967 29.967h73.299c4.142 0 7.5-3.357 7.5-7.5s-3.358-7.5-7.5-7.5H106.44c-8.253 0-14.967-6.714-14.967-14.967v-6.588h9.385c9.998 0 18.131-8.134 18.131-18.132v-49.623c0-9.997-8.134-18.131-18.131-18.131h-9.385V170.281h9.385c9.998 0 18.131-8.134 18.131-18.131v-49.623c0-9.998-8.134-18.132-18.131-18.132h-9.385v-6.588c0-8.253 6.714-14.967 14.967-14.967h316.97c8.253 0 14.967 6.714 14.967 14.967v316.971c0 8.253-6.714 14.967-14.967 14.967H214.261c-4.142 0-7.5 3.357-7.5 7.5s3.358 7.5 7.5 7.5H423.41c16.524 0 29.967-13.443 29.967-29.967V77.808c0-16.523-13.443-29.967-29.967-29.967H106.44c-16.524 0-29.967 13.443-29.967 29.967v6.588H43.632V28.763C43.632 21.174 49.805 15 57.394 15h81.344c4.142 0 7.5-3.357 7.5-7.5s-3.358-7.5-7.5-7.5H57.394c-15.86 0-28.763 12.903-28.763 28.763V84.41c-9.869.15-17.854 8.213-17.854 18.118v49.623c0 9.904 7.985 17.967 17.854 18.117V302.32c-9.869.15-17.854 8.213-17.854 18.117v49.623c0 9.905 7.985 17.968 17.854 18.118v55.647c0 15.859 12.903 28.763 28.763 28.763h19.545v7.457c0 17.618 14.333 31.952 31.952 31.952s31.952-14.334 31.952-31.952v-7.457h248.163v7.457c0 17.618 14.333 31.952 31.952 31.952s31.952-14.334 31.952-31.952v-7.457h19.545c15.86 0 28.763-12.903 28.763-28.763v-55.566a7.5 7.5 0 00-7.5-7.502zM76.472 302.305h-32.84V170.281h32.841v132.024zM25.777 152.15v-49.623a3.135 3.135 0 013.131-3.132h71.949a3.135 3.135 0 013.131 3.132v49.623a3.134 3.134 0 01-3.131 3.131H28.908a3.134 3.134 0 01-3.131-3.131zm0 217.909v-49.623a3.134 3.134 0 013.131-3.131h71.949a3.134 3.134 0 013.131 3.131v49.623a3.135 3.135 0 01-3.131 3.132H28.908a3.137 3.137 0 01-3.131-3.132zm100.067 109.984c0 9.348-7.604 16.952-16.952 16.952s-16.952-7.604-16.952-16.952v-7.457h33.904v7.457zm312.066 0c0 9.348-7.604 16.952-16.952 16.952s-16.952-7.604-16.952-16.952v-7.457h33.904v7.457z"/><path d="M472.455 0H173.261c-4.142 0-7.5 3.357-7.5 7.5s3.358 7.5 7.5 7.5h299.194c7.589 0 13.763 6.174 13.763 13.763v324.971c0 4.143 3.358 7.5 7.5 7.5s7.5-3.357 7.5-7.5V28.763C501.218 12.903 488.315 0 472.455 0z"/><path d="M399.766 179.712a7.503 7.503 0 00-10.051-.502c-13.106-10.723-29.368-16.556-46.529-16.556-19.67 0-38.162 7.66-52.07 21.568-13.909 13.908-21.569 32.4-21.569 52.07 0 17.161 5.833 33.423 16.557 46.529a7.501 7.501 0 005.804 12.249 7.481 7.481 0 004.749-1.695c13.106 10.723 29.368 16.557 46.529 16.557 19.67 0 38.162-7.66 52.07-21.568 13.909-13.909 21.569-32.401 21.569-52.071 0-17.161-5.833-33.423-16.557-46.529a7.502 7.502 0 00-.502-10.052zm-98.044 15.117c11.075-11.076 25.801-17.176 41.464-17.176 13.133 0 25.598 4.303 35.814 12.218l-11.584 11.584c-16.532-11.508-39.482-9.915-54.222 4.805l-.021.019a.36.36 0 00-.018.02c-14.721 14.738-16.315 37.69-4.807 54.223l-11.584 11.584c-7.915-10.216-12.218-22.681-12.218-35.815.001-15.662 6.101-30.387 17.176-41.462zm17.498 28.104l13.359 13.359-13.359 13.359c-4.609-8.276-4.608-18.442 0-26.718zm10.607-10.607a27.465 27.465 0 0113.359-3.465c4.612 0 9.221 1.16 13.359 3.464l-13.359 13.359-13.359-13.358zm13.359 34.573l13.359 13.359c-8.276 4.609-18.443 4.608-26.718 0l13.359-13.359zm23.966 2.752l-13.359-13.359 13.359-13.359c4.609 8.276 4.609 18.442 0 26.718zm17.498 28.105c-11.075 11.076-25.801 17.176-41.464 17.176-13.133 0-25.598-4.303-35.814-12.218l11.584-11.584a42.382 42.382 0 0024.23 7.587c10.86 0 21.72-4.13 29.991-12.392l.021-.019a.36.36 0 00.018-.02c14.721-14.738 16.316-37.69 4.807-54.223l11.584-11.584c7.915 10.216 12.218 22.68 12.218 35.814 0 15.662-6.099 30.388-17.175 41.463zm-132.817 11.196v-102.32c0-9.649-7.851-17.5-17.5-17.5H208c-9.649 0-17.5 7.851-17.5 17.5v102.32c0 9.649 7.851 17.5 17.5 17.5h26.333c9.65 0 17.5-7.85 17.5-17.5zm-46.333 0v-102.32c0-1.379 1.122-2.5 2.5-2.5h26.333c1.378 0 2.5 1.121 2.5 2.5v102.32c0 1.379-1.122 2.5-2.5 2.5H208a2.502 2.502 0 01-2.5-2.5z"/></svg>