<svg xmlns="http://www.w3.org/2000/svg" viewBox="0 0 512 512"><path d="M502.208 11.82H9.792C4.384 11.82 0 16.204 0 21.612v341.8c0 5.408 4.384 9.792 9.792 9.792 5.408 0 9.792-4.384 9.792-9.792V31.404h472.832v403.76H19.584v-43.029c0-5.408-4.384-9.792-9.792-9.792-5.408 0-9.792 4.384-9.792 9.792v52.821c0 5.408 4.384 9.792 9.792 9.792h23.711v35.639c0 5.408 4.384 9.792 9.792 9.792h94.994c5.408 0 9.792-4.384 9.792-9.792v-35.639h215.837v35.639a9.791 9.791 0 009.792 9.792h94.994a9.791 9.791 0 009.792-9.792v-35.639h23.711a9.791 9.791 0 009.792-9.792V21.612c.001-5.408-4.382-9.792-9.791-9.792zM128.497 480.596h-75.41v-25.847h75.41v25.847zm330.415 0h-75.41v-25.847h75.41v25.847z"/><path d="M256 131.596c-56.071 0-101.689 45.617-101.689 101.689S199.928 334.973 256 334.973s101.689-45.617 101.689-101.688S312.071 131.596 256 131.596zm81.499 91.894h-30.038a52.092 52.092 0 00-8.159-19.661l21.223-21.223c9.087 11.546 15.145 25.571 16.974 40.884zm-71.708-71.706c15.315 1.829 29.34 7.886 40.885 16.973l-21.223 21.223a52.132 52.132 0 00-19.663-8.158v-30.038zm-19.583 0v30.038a52.107 52.107 0 00-19.661 8.158l-21.223-21.223c11.545-9.087 25.57-15.143 40.884-16.973zm-54.733 30.821l21.223 21.223a52.122 52.122 0 00-8.159 19.661h-30.038c1.829-15.314 7.887-29.34 16.974-40.884zM174.5 243.074h30.038a52.135 52.135 0 008.157 19.664l-21.223 21.223c-9.087-11.545-15.145-25.572-16.972-40.887zm71.708 71.71c-15.315-1.829-29.341-7.887-40.887-16.976l21.223-21.221a52.1 52.1 0 0019.664 8.159v30.038zm-23.017-81.499c0-18.091 14.718-32.809 32.809-32.809s32.809 14.718 32.809 32.809c0 18.091-14.717 32.808-32.809 32.808-18.091-.001-32.809-14.717-32.809-32.808zm42.6 81.499v-30.038a52.11 52.11 0 0019.665-8.159l21.223 21.223c-11.547 9.088-25.572 15.145-40.888 16.974zm54.736-30.823l-21.223-21.223a52.07 52.07 0 008.157-19.664H337.5c-1.829 15.315-7.885 29.341-16.973 40.887z"/><path d="M442.784 71.241h-56.22a9.791 9.791 0 00-9.792 9.792 9.791 9.791 0 009.792 9.792h46.428V375.75H79.002V354.7H91.5c5.408 0 9.792-4.384 9.792-9.792v-78.333c0-5.408-4.384-9.792-9.792-9.792H79.002v-47H91.5c5.408 0 9.792-4.384 9.792-9.792v-78.33c0-5.408-4.384-9.792-9.792-9.792H79.002V90.825h277.535a9.791 9.791 0 009.792-9.792 9.791 9.791 0 00-9.792-9.792H69.209c-5.408 0-9.792 4.384-9.792 9.792v30.833H48.322c-5.408 0-9.792 4.384-9.792 9.792v78.333c0 5.408 4.384 9.792 9.792 9.792h11.095v47H48.322c-5.408 0-9.792 4.384-9.792 9.792v78.333c0 5.408 4.384 9.792 9.792 9.792h11.095v30.843c0 5.408 4.384 9.792 9.792 9.792h373.575a9.791 9.791 0 009.792-9.792V81.033a9.791 9.791 0 00-9.792-9.792zm-384.67 118.96v-58.749H69.12c.03 0 .059.004.089.004s.059-.004.089-.004h12.41v58.749H58.114zm0 144.915v-58.749h23.594v58.749H58.114z"/></svg>