<svg xmlns="http://www.w3.org/2000/svg" viewBox="0 0 470 470"><path d="M447.851 0H22.149C9.936 0 0 9.936 0 22.148v66.921c0 12.213 9.936 22.148 22.149 22.148h425.702c12.213 0 22.149-9.936 22.149-22.148V22.148C470 9.936 460.064 0 447.851 0zM455 89.069c0 3.941-3.207 7.148-7.149 7.148H22.149c-3.942 0-7.149-3.207-7.149-7.148V22.148C15 18.207 18.207 15 22.149 15h425.702c3.942 0 7.149 3.207 7.149 7.148v66.921zm-169.936 85.258H55.609c-4.142 0-7.5 3.357-7.5 7.5s3.358 7.5 7.5 7.5h229.455c4.142 0 7.5-3.357 7.5-7.5s-3.358-7.5-7.5-7.5zm129.327-15c-12.407 0-22.5 10.094-22.5 22.5s10.093 22.5 22.5 22.5 22.5-10.094 22.5-22.5-10.093-22.5-22.5-22.5zm0 30c-4.136 0-7.5-3.364-7.5-7.5s3.364-7.5 7.5-7.5 7.5 3.364 7.5 7.5-3.364 7.5-7.5 7.5zm-66.218-30c-12.407 0-22.5 10.094-22.5 22.5s10.093 22.5 22.5 22.5 22.5-10.094 22.5-22.5-10.093-22.5-22.5-22.5zm0 30c-4.136 0-7.5-3.364-7.5-7.5s3.364-7.5 7.5-7.5 7.5 3.364 7.5 7.5-3.364 7.5-7.5 7.5z"/><path d="M447.851 126.218H22.149C9.936 126.218 0 136.154 0 148.367v66.92c0 12.213 9.936 22.148 22.149 22.148h425.702c12.213 0 22.149-9.936 22.149-22.148v-66.92c0-12.213-9.936-22.149-22.149-22.149zM455 215.287c0 3.941-3.207 7.148-7.149 7.148H22.149c-3.942 0-7.149-3.207-7.149-7.148v-66.92a7.157 7.157 0 017.149-7.149h425.702a7.157 7.157 0 017.149 7.149v66.92zm-169.936 85.258H55.609c-4.142 0-7.5 3.357-7.5 7.5s3.358 7.5 7.5 7.5h229.455c4.142 0 7.5-3.357 7.5-7.5s-3.358-7.5-7.5-7.5zm129.327-15c-12.407 0-22.5 10.094-22.5 22.5s10.093 22.5 22.5 22.5 22.5-10.094 22.5-22.5-10.093-22.5-22.5-22.5zm0 30c-4.136 0-7.5-3.364-7.5-7.5s3.364-7.5 7.5-7.5 7.5 3.364 7.5 7.5-3.364 7.5-7.5 7.5zm-66.218-30c-12.407 0-22.5 10.094-22.5 22.5s10.093 22.5 22.5 22.5 22.5-10.094 22.5-22.5-10.093-22.5-22.5-22.5zm0 30c-4.136 0-7.5-3.364-7.5-7.5s3.364-7.5 7.5-7.5 7.5 3.364 7.5 7.5-3.364 7.5-7.5 7.5z"/><path d="M447.851 252.436H22.149C9.936 252.436 0 262.372 0 274.585v66.92c0 12.213 9.936 22.149 22.149 22.149h425.702c12.213 0 22.149-9.937 22.149-22.149v-66.92c0-12.213-9.936-22.149-22.149-22.149zM455 341.505a7.157 7.157 0 01-7.149 7.149H22.149A7.157 7.157 0 0115 341.505v-66.92a7.157 7.157 0 017.149-7.149h425.702a7.157 7.157 0 017.149 7.149v66.92zM462.5 430c4.142 0 7.5-3.357 7.5-7.5s-3.358-7.5-7.5-7.5H292.755c-.556-3.593-3.654-6.346-7.402-6.346h-19.68v-22.5c0-4.143-3.358-7.5-7.5-7.5s-7.5 3.357-7.5 7.5v30a7.5 7.5 0 007.5 7.5h19.68V455h-85.705v-31.346h36.025c4.142 0 7.5-3.357 7.5-7.5s-3.358-7.5-7.5-7.5h-8.846v-22.5c0-4.143-3.358-7.5-7.5-7.5s-7.5 3.357-7.5 7.5v22.5h-19.679c-3.749 0-6.846 2.753-7.402 6.346H7.5c-4.142 0-7.5 3.357-7.5 7.5s3.358 7.5 7.5 7.5h169.647v15H7.5c-4.142 0-7.5 3.357-7.5 7.5s3.358 7.5 7.5 7.5h169.647v2.5a7.5 7.5 0 007.5 7.5h100.705a7.5 7.5 0 007.5-7.5V460H462.5c4.142 0 7.5-3.357 7.5-7.5s-3.358-7.5-7.5-7.5H292.853v-15H462.5zM285.064 48.109H55.609c-4.142 0-7.5 3.357-7.5 7.5s3.358 7.5 7.5 7.5h229.455c4.142 0 7.5-3.357 7.5-7.5s-3.358-7.5-7.5-7.5zm129.327-15c-12.407 0-22.5 10.094-22.5 22.5s10.093 22.5 22.5 22.5 22.5-10.094 22.5-22.5-10.093-22.5-22.5-22.5zm0 30c-4.136 0-7.5-3.364-7.5-7.5s3.364-7.5 7.5-7.5 7.5 3.364 7.5 7.5-3.364 7.5-7.5 7.5zm-66.218-30c-12.407 0-22.5 10.094-22.5 22.5s10.093 22.5 22.5 22.5 22.5-10.094 22.5-22.5-10.093-22.5-22.5-22.5zm0 30c-4.136 0-7.5-3.364-7.5-7.5s3.364-7.5 7.5-7.5 7.5 3.364 7.5 7.5-3.364 7.5-7.5 7.5z"/></svg>