<svg xmlns="http://www.w3.org/2000/svg" width="512" height="512"><path d="M511.815 194.428c0-64.352-68.032-146.459-204.943-157.703-20.726-1.72-41.095-2.099-60.251-2.207-62.604-.348-127.321 4.14-176.673 39.096a7.501 7.501 0 008.67 12.241C95.783 73.696 115.19 65.5 135.905 60.021c-2.816 16.77-9.818 33.847-20.207 49.017-17.039 24.881-41.127 45.005-64.422 64.467-12.355 10.324-23.937 19.968-34.517 30.295 1.993-36.401 15.731-71.72 38.919-97.565a7.5 7.5 0 00-.574-10.591 7.498 7.498 0 00-10.591.573c-20.317 22.645-34.027 51.87-39.842 82.989a7.878 7.878 0 00-.166.585c-1.987 8.302-3 18.068-3.096 29.852-.02 2.257-.164 7.851-.346 14.934C.15 260.133-.627 295.504.74 303.36c9.75 55.979 45.232 108.421 97.35 143.882 21.261 14.464 45.361 24.558 67.86 28.422 24.821 4.261 49.884 1.392 70.953-11.644 16.341-10.109 28.21-24.952 39.688-39.305 8.601-10.755 16.725-20.914 26.517-29.128a7.501 7.501 0 00.926-10.567 7.497 7.497 0 00-10.565-.926c-10.936 9.172-19.911 20.397-28.591 31.251-11.175 13.973-21.729 27.171-35.866 35.918-16.799 10.394-37.161 13.629-60.522 9.616-20.431-3.509-42.437-12.758-61.962-26.04-48.78-33.189-81.951-82.05-91.009-134.051-.414-2.381-.547-9.462-.521-18.59a210.817 210.817 0 0012.981 27.051c17.087 30.076 41.783 56.993 72.227 77.969 21.004 14.472 44.82 24.573 67.061 28.441 24.432 4.247 49.262 1.445 70.183-11.664 31.053-19.455 45.733-56.473 73.63-74.623 33.09-21.535 85.744-14.207 124.434-28.766 23.864-8.981 45.586-28.641 59.595-53.941a125.196 125.196 0 001.857-3.479c-.082 15.471-.352 24.422-.81 26.719-7.724 34.528-33.388 65.332-63.862 76.652-16.675 6.198-35.523 8.19-53.751 10.118-18.5 1.956-37.63 3.98-55.207 10.34a7.5 7.5 0 005.104 14.106c15.864-5.742 33.262-7.581 51.681-9.529 19.151-2.025 38.955-4.119 57.397-10.974 35.041-13.015 64.489-48.155 73.274-87.425 1.853-8.222 1.023-66.751 1.023-78.765zm-29.971-50.333c-3.455-.085-6.85-.063-10.198-.042-20.558.135-23.755.007-26.087-5.243-3.202-7.206-.846-20.853 3.733-32.835a196.836 196.836 0 014.065 3.67c11.888 11.044 21.477 22.67 28.487 34.45zm-211.206-94.23a187.255 187.255 0 00-14.091 14.46c-23.021 26.341-56.209 53.941-68.551 59.311-2.986-6.201-7.999-26.097-12.54-70.936 29.846-3.535 65.035-3.615 95.182-2.835zM60.892 185.018c24.077-20.114 48.973-40.913 67.182-67.503 12.845-18.757 21.075-40.238 23.483-61.085 2.944-.58 5.959-1.125 9.032-1.631 7.44 73.37 15.63 79.651 19.196 82.388 2.388 1.833 5.245 2.582 8.049 2.109 16.551-2.796 58.44-40.424 80.007-65.1a173.916 173.916 0 0124.975-23.415c15.986.925 31.952 2.541 47.546 5.251-32.166 12.633-54.737 41.239-69.364 62.543-4.506 6.562-8.907 13.344-13.163 19.903-14.135 21.786-27.487 42.365-46.046 58.445-12.458 10.795-26.646 19.004-41.668 27.696-9.637 5.576-19.603 11.343-29.019 17.836-32.91 22.694-59.573 55.521-76.01 93.318-11.466-13.275-21.054-27.492-28.608-42.353l-.015-.029a1.567 1.567 0 01-.029-.058c-10.678-21.085-17.732-44.324-19.473-68.139 13.234-14.698 28.481-27.272 43.925-40.176zm168.593 206.266c-16.555 10.372-36.623 13.602-59.648 9.596-20.155-3.505-41.861-12.744-61.122-26.014-11.77-8.11-22.62-17.156-32.426-26.956 15.035-37.836 40.94-70.77 73.329-93.104 8.928-6.157 18.632-11.771 28.017-17.202 14.967-8.66 30.443-17.615 43.978-29.342 20.164-17.471 34.725-39.913 48.807-61.617 4.204-6.478 8.55-13.176 12.945-19.578 23.522-34.258 46.151-53.304 71.216-59.939 4.986-1.317 10.472-2.589 15.986-4.217 15.326 4.42 26.793 9.166 37.429 14.727-4.195 8.728-10.037 17.487-17.131 25.644-16.861 19.389-38.303 34.681-57.183 53.585-25.647 25.68-45.618 58.031-57.751 93.559-11.758 34.427-15.898 71.069-12.023 106.183-10.675 13.513-20.887 26.194-34.423 34.675zm130.332-92.611c-12.729 1.671-25.401 4.014-37.421 8.447 5.823-31.94 18.978-62.003 38.443-87.627 5.212-6.859 10.36-10.343 13.756-9.335 2.549.76 4.605 4.486 4.682 8.481.219 11.426-13.599 30.226-19.46 80.034zm122.168-59.275c-12.31 22.231-31.174 39.424-51.756 47.169-3.885 1.462-7.891 2.69-11.981 3.738 2.323-16.069 7.834-31.662 16.169-45.594a7.502 7.502 0 00-2.586-10.288 7.502 7.502 0 00-10.287 2.586c-10.267 17.163-16.717 36.57-18.805 56.465-8.443 1.366-17.022 2.286-25.536 3.197l-2.05.22c6.079-46.283 19.417-62.981 19.121-78.54-.205-10.647-6.536-19.928-15.396-22.569-7.015-2.089-17.914-1.248-29.983 14.637-23.006 30.285-37.798 66.324-42.908 104.457-10.971 6.521-19.951 15.14-28.317 24.786-1.122-28.176 3.104-57.014 12.454-84.388 11.397-33.373 30.129-63.736 54.169-87.806 18.388-18.411 40.206-34.008 57.888-54.341 7.704-8.859 14.127-18.42 18.866-28.034a216.678 216.678 0 0116.09 11.009c-5.851 13.454-11.665 34.447-5.286 48.801 7.052 15.868 22.205 14.27 39.895 14.152 6.094-.044 11.915-.079 17.769.507 2.377 5.965 4.169 12.081 5.119 18.61a138.322 138.322 0 00-52.209 32.273 7.501 7.501 0 00-.081 10.607 7.502 7.502 0 0010.606.081 123.322 123.322 0 0142.42-27.277c-.691 15.071-5.248 30.845-13.385 45.542z"/></svg>