<svg xmlns="http://www.w3.org/2000/svg" width="15" height="8.094"><path data-name="Фигура 34" d="M14.88 7.146a6.349 6.349 0 00-1.49-1.616c-1.26-1.093-1.09-.915.43-2.806C14.74 1.573 15.11.869 15 .568a.924.924 0 00-.79-.211L11.95.37a.535.535 0 00-.29.048.624.624 0 00-.2.227 11.83 11.83 0 01-.84 1.649c-1 1.6-1.4 1.684-1.57 1.584a1.726 1.726 0 01-.28-1.426c0-1.549.25-2.2-.49-2.362a4.1 4.1 0 00-1.06-.1 5.151 5.151 0 00-1.87.179c-.26.117-.46.38-.34.395a1.05 1.05 0 01.67.315 1.925 1.925 0 01.22.956s.14 1.824-.31 2.051c-.3.155-.72-.162-1.62-1.613a14.293 14.293 0 01-.8-1.565.643.643 0 00-.19-.234.928.928 0 00-.34-.132L.49.355a.768.768 0 00-.44.14.4.4 0 00-.01.358 22.628 22.628 0 003.58 5.535 5.362 5.362 0 003.73 1.59h.9a.8.8 0 00.41-.168.629.629 0 00.12-.37s-.02-1.128.54-1.294 1.26 1.09 2.01 1.573a1.5 1.5 0 001 .285l2-.026s1.05-.06.55-.832z" fill="#042642" fill-rule="evenodd"/></svg>