<svg xmlns="http://www.w3.org/2000/svg" viewBox="0 0 30 30"><path d="M29.2 21.4c-.8-1.2-1.7-2.3-2.9-3.1-2.4-2.1-2.1-1.8.8-5.4 1.8-2.2 2.5-3.6 2.3-4.2-.4-.4-1-.5-1.5-.4h-4.4c-.2 0-.4 0-.6.1-.2.1-.3.3-.4.4-.5 1.1-1 2.2-1.6 3.2-1.9 3.1-2.7 3.3-3 3.1-.6-.8-.8-1.8-.5-2.8 0-3 .5-4.3-.9-4.6-.7-.2-1.4-.2-2-.2-1.2-.1-2.4 0-3.6.3-.5.2-.9.7-.7.8.5 0 1 .3 1.3.6.3.6.4 1.2.4 1.8 0 0 .3 3.5-.6 4-.6.3-1.4-.3-3.1-3.1C7.5 11 7 10 6.6 9c-.1-.2-.3-.4-.4-.5-.2-.1-.4-.2-.7-.3H1.3c-.3 0-.6.1-.9.3 0 .3 0 .5.1.7 1.8 3.9 4.1 7.5 6.9 10.7 1.9 1.9 4.5 3 7.2 3.1h1.7c.3 0 .6-.1.8-.3.2-.2.2-.5.2-.7 0 0 0-2.2 1-2.5s2.4 2.1 3.9 3c.6.4 1.2.6 1.9.6L28 23c.1 0 2.2-.1 1.2-1.6z"/></svg>