<svg xmlns="http://www.w3.org/2000/svg" width="512" height="512"><path d="M249.613 298.067c0 3.754-2.907 6.661-6.661 6.661H200.08c-1.928.026-3.945-.665-5.208-2.18-2.543-2.785-2.301-6.903.363-9.446l35.848-32.457c6.07-5.442 6.711-15.013 1.729-21.394-5.131-6.57-14.92-7.662-21.599-2.82-2.673 1.938-4.897 5.428-8.319 6.022-3.195.554-6.356-1.418-7.413-4.45-1.684-4.835 2.452-7.728 5.567-10.542 5.45-5.086 12.595-7.509 19.499-7.509 7.872 0 15.865 3.27 21.557 9.568 5.087 5.45 7.509 12.595 7.509 19.499 0 7.872-3.27 15.865-9.567 21.557l-22.89 20.71h25.796c3.755-.001 6.661 3.027 6.661 6.781zm68.182-15.865c0 3.754-3.028 6.661-6.782 6.661h-1.211v9.204c0 3.754-2.907 6.661-6.661 6.661s-6.661-2.907-6.661-6.661v-9.204h-37.907c-5.625.193-8.923-6.391-5.449-10.779 1.543-1.918 44.303-55.213 44.807-55.706.419-.411.958-.953 1.457-1.276 4.371-2.827 10.416.128 10.416 5.511v48.928h1.211c3.752 0 6.78 3.027 6.78 6.661zm-21.316-36.575l-24.101 29.914h24.101v-29.914z"/><path d="M472.031 175.741C453.768 73.056 358.852 0 255.999 0 153.145 0 58.233 73.058 39.968 175.74 17.353 179.27 0 198.743 0 222.168V247c0 9.673 15 9.673 15 0v-24.833c0-17.646 14.511-32.002 32.348-32.002H63v155.629H47.348c-17.837.001-32.348-14.355-32.348-32V285c0-9.673-15-9.673-15 0v28.794c0 25.917 21.24 47.001 47.348 47.001H63.8c6.955 25.969 46.771 20.858 46.771-6.077V181.243c0-26.888-39.803-32.091-46.771-6.077h-8.458C73.763 81.084 161.489 15 255.999 15s182.237 66.083 200.658 160.166H448.2c-6.955-25.968-46.772-20.857-46.772 6.077v173.475c0 26.889 39.805 32.093 46.772 6.077h8.358c-13.459 71.272-78.608 117.733-149.404 119.975-3.188-9.326-12.077-16.057-22.524-16.057h-57.26c-12.887 0-23.786 10.715-23.786 23.644S214.483 512 227.37 512h57.26c10.51 0 19.444-6.813 22.582-16.227 79.321-2.338 151.206-55.627 164.677-135.527C494.573 356.777 512 337.268 512 313.794v-91.626c0-23.425-17.354-42.898-39.969-46.427zM78 181.243c0-11.158 17.571-11.165 17.571 0v173.475c0 11.16-17.571 11.166-17.571 0V181.243zM284.63 497h-57.26c-11.297 0-11.305-17.287 0-17.287h57.26c11.298 0 11.306 17.287 0 17.287zM434 354.718c0 11.16-17.572 11.166-17.572 0V181.243c0-11.159 17.572-11.165 17.572 0v173.475zm63-40.924c0 17.646-14.512 32.001-32.35 32.001H449V190.166h15.65c17.838 0 32.35 14.356 32.35 32.002v91.626z"/><path d="M294.774 378.806l45.101 19.87c4.869 2.147 10.523-1.56 10.523-6.863v-50.187c19.015-22.185 29.451-50.3 29.451-79.504 0-25.716-7.931-50.342-22.934-71.217-5.642-7.857-17.826.9-12.18 8.754 13.158 18.309 20.113 39.908 20.113 62.463 0 26.465-9.776 51.917-27.529 71.667a7.504 7.504 0 00-1.922 5.014v41.511l-37.25-16.411a7.498 7.498 0 00-5.524-.208c-11.744 4.155-24.066 6.261-36.624 6.261-60.019 0-108.848-48.374-108.848-107.834S195.981 154.287 256 154.287c22.382 0 43.877 6.674 62.161 19.301 7.959 5.496 16.483-6.846 8.523-12.343-20.801-14.365-45.244-21.958-70.684-21.958-68.29 0-123.848 55.103-123.848 122.834S187.71 384.955 256 384.955c13.254 0 26.282-2.067 38.774-6.149z"/></svg>