<svg xmlns="http://www.w3.org/2000/svg" viewBox="0 0 512 512"><path d="M325.866 83.594V53.72c7.094 2.298 12.087 7.697 12.087 13.977 0 4.214 3.415 7.63 7.63 7.63s7.63-3.416 7.63-7.63c0-14.493-11.719-26.643-27.346-29.681v-2.224a7.63 7.63 0 00-7.63-7.63 7.63 7.63 0 00-7.63 7.63v2.224c-15.627 3.037-27.346 15.187-27.346 29.68s11.719 26.643 27.346 29.68v29.872c-7.094-2.296-12.087-7.696-12.087-13.975a7.63 7.63 0 00-7.63-7.63 7.63 7.63 0 00-7.63 7.63c0 14.493 11.719 26.643 27.346 29.68v2.224a7.63 7.63 0 007.63 7.63 7.63 7.63 0 007.63-7.63v-2.224c15.627-3.037 27.346-15.187 27.346-29.68 0-14.492-11.719-26.643-27.346-29.679zm-15.259-1.921c-7.094-2.297-12.087-7.696-12.087-13.976 0-6.28 4.993-11.679 12.087-13.977v27.953zm15.258 45.577V99.297c7.094 2.298 12.087 7.697 12.087 13.976 0 6.28-4.993 11.679-12.087 13.977z"/><path d="M318.236 0c-49.893 0-90.485 40.591-90.485 90.486a7.628 7.628 0 007.629 7.63 7.63 7.63 0 007.63-7.63c0-41.479 33.746-75.227 75.226-75.227s75.227 33.746 75.227 75.227c0 41.48-33.747 75.226-75.227 75.226-2.986 0-5.989-.176-8.926-.523-4.178-.491-7.978 2.497-8.472 6.681a7.63 7.63 0 006.681 8.472c3.53.417 7.135.629 10.716.629 49.894 0 90.486-40.591 90.486-90.485S368.13 0 318.236 0zM211.667 182.766v-29.872c7.093 2.298 12.087 7.697 12.087 13.976a7.63 7.63 0 007.63 7.63 7.63 7.63 0 007.63-7.63c0-14.493-11.719-26.643-27.346-29.68v-2.224c0-4.214-3.415-7.63-7.63-7.63s-7.63 3.416-7.63 7.63v2.224c-15.627 3.037-27.346 15.187-27.346 29.68s11.719 26.643 27.346 29.68v29.873c-7.093-2.298-12.087-7.697-12.087-13.977a7.63 7.63 0 00-7.63-7.63 7.63 7.63 0 00-7.63 7.63c0 14.493 11.719 26.643 27.346 29.681v2.224c0 4.214 3.415 7.63 7.63 7.63s7.63-3.416 7.63-7.63v-2.224c15.627-3.037 27.346-15.188 27.346-29.681s-11.719-26.644-27.346-29.68zm-15.26-1.92c-7.093-2.298-12.087-7.697-12.087-13.976 0-6.28 4.993-11.679 12.087-13.976v27.952zm15.26 45.577v-27.954c7.093 2.298 12.087 7.697 12.087 13.976 0 6.28-4.993 11.68-12.087 13.978zm-43.633-111.798a7.632 7.632 0 00-10.468-2.62c-27.149 16.28-44.016 46.037-44.016 77.655 0 19.497 6.106 38.065 17.657 53.699a7.627 7.627 0 0010.672 1.603 7.63 7.63 0 001.602-10.67c-9.598-12.989-14.671-28.422-14.671-44.631 0-26.686 13.683-50.824 36.604-64.569a7.631 7.631 0 002.62-10.467z"/><path d="M204.038 99.175c-6.388 0-12.77.67-18.965 1.992a7.631 7.631 0 00-5.87 9.054 7.635 7.635 0 009.056 5.869 75.684 75.684 0 0115.78-1.656c41.479 0 75.227 33.747 75.227 75.228 0 16.209-5.073 31.641-14.671 44.631a7.631 7.631 0 006.13 12.164 7.618 7.618 0 006.142-3.096c11.551-15.633 17.657-34.202 17.657-53.699 0-49.894-40.592-90.487-90.486-90.487zm197.176 91.498H309.07c-4.215 0-7.63 3.416-7.63 7.63s3.415 7.63 7.63 7.63h92.144a5.35 5.35 0 015.344 5.343v9.751H304.321a7.63 7.63 0 00-7.63 7.63 7.63 7.63 0 007.63 7.63h102.236v5.151c0 4.214 3.415 7.63 7.63 7.63s7.63-3.416 7.63-7.63v-30.16c-.001-11.363-9.242-20.605-20.603-20.605z"/><path d="M414.187 324.411a7.63 7.63 0 007.63-7.63v-38.087c0-14.464-11.767-26.23-26.23-26.23H114.29c-12.802 0-23.221-10.395-23.264-23.188v-.081l-.001-.021c.01-9.121 5.387-17.439 13.706-21.195a7.63 7.63 0 00-6.278-13.907c-13.782 6.222-22.687 20.01-22.687 35.128l.002.078v244.193c0 21.245 17.279 38.529 38.52 38.529h281.298c14.464 0 26.23-11.767 26.23-26.23v-49.961a7.628 7.628 0 00-7.629-7.63 7.63 7.63 0 00-7.63 7.63v49.961c0 6.05-4.922 10.971-10.971 10.971H114.287c-12.826 0-23.261-10.438-23.261-23.27V259.88a38.315 38.315 0 0023.264 7.843h281.296c6.05 0 10.971 4.922 10.971 10.971v38.087a7.63 7.63 0 007.63 7.63z"/><path d="M415.128 330.497h-54.376c-25.253 0-45.798 20.545-45.798 45.798s20.544 45.798 45.798 45.798h13.823a7.63 7.63 0 007.63-7.63 7.63 7.63 0 00-7.63-7.63h-13.823c-16.839 0-30.539-13.7-30.539-30.539s13.7-30.539 30.539-30.539h54.376a5.855 5.855 0 015.848 5.849v49.381a5.855 5.855 0 01-5.848 5.848h-15.121c-4.215 0-7.63 3.416-7.63 7.63s3.415 7.63 7.63 7.63h15.121c11.639 0 21.107-9.469 21.107-21.107v-49.381c0-11.64-9.468-21.108-21.107-21.108z"/><path d="M359.903 353.398c-12.625 0-22.897 10.272-22.897 22.897 0 12.625 10.271 22.897 22.897 22.897s22.898-10.271 22.898-22.897-10.273-22.897-22.898-22.897zm-.001 30.534c-4.212 0-7.638-3.426-7.638-7.638s3.426-7.638 7.638-7.638c4.213 0 7.639 3.427 7.639 7.638 0 4.212-3.426 7.638-7.639 7.638zM152.748 38.595a7.63 7.63 0 00-7.63 7.63v38.656c0 4.214 3.415 7.63 7.63 7.63s7.63-3.416 7.63-7.63V46.225a7.63 7.63 0 00-7.63-7.63zm38.143-15.26a7.63 7.63 0 00-7.63 7.63v38.656a7.63 7.63 0 007.63 7.63 7.63 7.63 0 007.63-7.63V30.965a7.63 7.63 0 00-7.63-7.63z"/></svg>