<svg xmlns="http://www.w3.org/2000/svg" viewBox="0 0 512 512"><path d="M480.452 12.024H31.548C14.152 12.024 0 26.177 0 43.572v352.71c0 17.396 14.152 31.548 31.548 31.548h80.161a7.5 7.5 0 000-15H31.548c-9.125 0-16.548-7.423-16.548-16.548V107.186h482v289.097c0 9.125-7.423 16.548-16.548 16.548h-80.161a7.5 7.5 0 000 15h80.161c17.396 0 31.548-14.153 31.548-31.548V43.572c0-17.395-14.152-31.548-31.548-31.548zm16.547 80.161H15V43.572c0-9.125 7.423-16.548 16.548-16.548h448.903c9.125 0 16.548 7.423 16.548 16.548v48.613z"/><path d="M39.645 52.104h-.08c-4.142 0-7.46 3.358-7.46 7.5 0 4.143 3.398 7.5 7.54 7.5a7.5 7.5 0 100-15zm48.016 0h-.08c-4.142 0-7.46 3.358-7.46 7.5 0 4.143 3.398 7.5 7.54 7.5a7.5 7.5 0 100-15zm-24.048 0h-.08c-4.142 0-7.46 3.358-7.46 7.5 0 4.143 3.398 7.5 7.54 7.5a7.5 7.5 0 100-15zm408.823 0h-352.71a7.5 7.5 0 000 15h352.71a7.5 7.5 0 100-15zm-120.759 225.36v-41.505c0-52.756-42.92-95.677-95.677-95.677s-95.677 42.921-95.677 95.677v41.505c-13.786 3.375-24.048 15.829-24.048 30.64v72.146c0 66.017 53.708 119.726 119.726 119.726s119.726-53.708 119.726-119.726v-72.146c-.001-14.811-10.264-27.264-24.05-30.64zM175.323 235.96c0-44.486 36.192-80.678 80.677-80.678s80.677 36.191 80.677 80.677v40.597h-17.064V235.96c0-35.077-28.537-63.613-63.613-63.613s-63.613 28.537-63.613 63.613v40.597h-17.064V235.96zM256 484.976c-57.747 0-104.726-46.98-104.726-104.726v-72.146c0-9.125 7.423-16.548 16.548-16.548h96.193a7.5 7.5 0 000-15h-56.629V235.96c0-26.806 21.808-48.613 48.613-48.613s48.613 21.808 48.613 48.613v40.597h-8.531a7.5 7.5 0 000 15h48.096c9.125 0 16.548 7.423 16.548 16.548v72.145h.001c0 57.746-46.979 104.726-104.726 104.726z"/><path d="M256 340.686c-17.396 0-31.548 14.152-31.548 31.548 0 14.812 10.262 27.265 24.048 30.64v25.473a7.5 7.5 0 0015 0v-25.473c13.786-3.375 24.048-15.829 24.048-30.64 0-17.396-14.152-31.548-31.548-31.548zm0 48.096c-9.125 0-16.548-7.424-16.548-16.548 0-9.124 7.423-16.548 16.548-16.548s16.548 7.424 16.548 16.548c0 9.124-7.423 16.548-16.548 16.548z"/></svg>