<svg height="512pt" viewBox="0 -28 512 511" width="512pt" xmlns="http://www.w3.org/2000/svg"><path d="M512 89.027c0-27.375-12.492-51.886-32.07-68.136a7.5 7.5 0 00-1.246-1.012C463.535 7.758 444.336.5 423.473.5c-22.368 0-43.309 8.184-59.637 23.129a7.496 7.496 0 00-.988-.074H224.566a7.53 7.53 0 000 15.058H355.32v36.465H152.648v-36.46h39.793a7.53 7.53 0 007.532-7.532 7.53 7.53 0 00-7.532-7.531h-44.355C131.75 8.675 110.73.5 88.527.5c-20.863 0-40.062 7.262-55.21 19.383a7.294 7.294 0 00-1.243 1.008C12.492 37.14 0 61.652 0 89.027a88.496 88.496 0 0010.227 41.328A88.496 88.496 0 000 171.684c0 27.375 12.492 51.886 32.07 68.14.371.375.79.711 1.246 1.008 15.149 12.121 34.348 19.379 55.211 19.379 24.391 0 47.063-9.688 63.922-27.29h22.906l-17.472 17.474c-19.07.968-36.856 8.82-50.516 22.48-12.812 12.816-20.148 29.055-22.05 45.8a7.638 7.638 0 00-.184 1.673c-2.02 22.054 5.387 44.82 22.234 61.668a77.19 77.19 0 0031.25 19.004 77.151 77.151 0 0019.004 31.246c15.047 15.046 34.809 22.57 54.57 22.57 2.375 0 4.75-.117 7.114-.332h.027a7.46 7.46 0 001.488-.168c16.797-1.875 33.09-9.219 45.942-22.07 14.914-14.914 22.906-34.696 22.578-55.762l40.055-40.055a7.528 7.528 0 000-10.648 7.528 7.528 0 00-10.649 0l-39.496 39.496-20.676-20.676 106.453-106.453c7.625 6.7 16.301 12 25.63 15.723l-51.126 51.125a7.528 7.528 0 005.324 12.851 7.516 7.516 0 005.325-2.203l56.972-56.973a88.301 88.301 0 0016.317 1.52c20.863 0 40.062-7.258 55.21-19.379a7.309 7.309 0 001.247-1.012c19.582-16.25 32.07-40.761 32.07-68.136a88.496 88.496 0 00-10.226-41.329A88.441 88.441 0 00512 89.027zM88.527 15.56c18.262 0 35.559 6.656 49.059 18.793V71.5c-12.152-.793-25.25-3.672-38.297-8.465-22.816-8.387-41.957-21.41-51.773-34.933a73.052 73.052 0 0141.011-12.543zM31.91 42.258a73.462 73.462 0 014.055-4.488c4.851 6.44 11.336 12.765 19.14 18.617 11.04 8.281 24.524 15.468 38.989 20.781 14.73 5.414 29.61 8.621 43.492 9.418v22.008c-19.145 3.984-41.145-1.707-56.574-7.375C46.527 88.547 30.46 69.25 31.91 42.258zM19.168 195.863a73.032 73.032 0 01-4.11-24.18c0-13.214 3.551-26.175 10.274-37.48a7.546 7.546 0 000-7.695c-6.723-11.301-10.273-24.262-10.273-37.48a73.11 73.11 0 014.32-24.805c8.129 27.504 33.777 42.804 56.441 51.129 13.11 4.816 30.578 9.617 48.125 9.617 4.567 0 9.14-.332 13.64-1.07v10.624c-17.03-2.882-37.179-.117-60.089 8.297-19.703 7.243-34.906 16.977-45.183 28.938-6.293 7.324-10.672 15.383-13.145 24.105zm16.797 27.078a74.7 74.7 0 01-3.95-4.367c0-.203 0-.402-.015-.605-2.117-27.348 14.938-47.875 50.691-61.012 21.32-7.832 40.141-10.238 54.899-7.098v24.274c-13.871.804-28.766 4-43.492 9.41-14.47 5.316-27.95 12.504-38.993 20.785-7.804 5.852-14.285 12.176-19.14 18.613zm52.562 22.211a73.049 73.049 0 01-41.011-12.539c9.816-13.523 28.957-26.55 51.773-34.933 13.05-4.793 26.137-7.672 38.297-8.47v36.185c0 .304.027.605.062.902-13.496 12.191-30.714 18.855-49.12 18.855zm108.125-12.23h41.352l-45.563 45.562-20.675-20.675zm-78.632 50.601c10.859-10.863 24.937-17.168 40.097-18.066l21.442 21.441c-7.649 6.524-17.086 12.504-27.325 17.243-18.304 8.468-37.117 12.175-50.996 10.304 2.407-11.34 7.989-22.132 16.782-30.922zm-17.91 49.47a62.85 62.85 0 01-.208-3.536c2.82.344 5.754.523 8.797.523 15.055 0 32.598-4.19 49.86-12.175 12.03-5.567 22.824-12.473 31.68-20.223l12.058 12.055c-7.34 10.77-20.356 20.687-37.957 28.828-28.04 12.972-49.07 11.18-64.23-5.473zM177.007 412c.547 7.25 2.316 13.96 5.258 20.113a61.906 61.906 0 01-13.993-10.496c-7.902-7.902-13.527-17.77-16.265-28.547a7.535 7.535 0 00-5.442-5.441 61.992 61.992 0 01-28.546-16.266 61.965 61.965 0 01-10.797-14.527c7.785 3.633 15.914 5.113 23.988 5.113 14.012 0 27.863-4.457 39.45-9.816 13.577-6.281 31.175-16.645 42.433-31.7l4.703 4.704c-11.836 8.761-22.172 22.593-30.817 41.273-7.652 16.547-11.007 31.887-9.972 45.59zm33.191 27.734a58.35 58.35 0 01-3.406-.199c-.047-.043-.09-.09-.14-.133-17.512-14.996-19.532-37.425-6.005-66.668 7.938-17.152 17.528-29.742 27.957-36.789l13.45 13.45c-7.754 8.87-14.672 19.683-20.223 31.683-9.602 20.754-13.691 41.899-11.633 58.656zm63.73-58.464c.079.078.169.148.25.226-.894 15.156-7.19 29.246-18.066 40.121-8.789 8.79-19.582 14.371-30.922 16.781-1.87-13.878 1.836-32.691 10.309-51 4.797-10.367 10.684-19.683 17.23-27.328zm81.391-163.407h-32.804a7.53 7.53 0 100 15.059h26.464l-101.05 101.05-12.66-12.66-.165-.164-32.015-32.015 56.21-56.211h31.09a7.53 7.53 0 000-15.059H152.647v-36.46H355.32zm0-51.52H152.648V90.137H355.32zM370.38 38.25c13.996-14.633 32.851-22.691 53.094-22.691a73.074 73.074 0 0141.015 12.543c-9.82 13.527-28.96 26.55-51.777 34.933-14.336 5.266-29.152 8.278-42.332 8.656zm0 48.508c15-.352 31.305-3.63 47.523-9.59 25.368-9.32 46.352-23.652 58.145-39.383a71.859 71.859 0 014.043 4.473c1.453 26.988-14.617 46.289-49.102 58.96-29.531 10.848-48.933 9.759-60.61 6.376zm53.094 158.394c-20.075 0-39.258-8.257-53.094-22.718V189.03c13.176.371 27.934 3.36 42.332 8.649 22.816 8.383 41.957 21.406 51.773 34.93a73.022 73.022 0 01-41.011 12.542zM480 217.97c-.016.203-.016.402-.016.605a72.917 72.917 0 01-3.937 4.356c-11.797-15.735-32.777-30.067-58.14-39.387-16.032-5.89-32.602-9.2-47.528-9.574v-23.094c15.309-4.57 35.59-2.492 58.93 6.082 35.754 13.137 52.808 33.664 50.691 61.012zm6.668-83.766c6.723 11.305 10.273 24.266 10.273 37.48a73.032 73.032 0 01-4.109 24.18c-2.473-8.722-6.852-16.785-13.144-24.105-10.278-11.961-25.481-21.695-45.184-28.938-24.774-9.101-46.29-11.605-64.125-7.507v-12.196c5.797 1.29 11.75 1.86 17.703 1.86 17.375 0 34.734-4.715 48.102-9.625 22.664-8.325 48.308-23.625 56.437-51.13a73.134 73.134 0 014.32 24.805c0 13.22-3.55 26.18-10.273 37.48a7.546 7.546 0 000 7.696zm0 0"/></svg>